<?xml version="1.0" encoding="UTF-8" standalone="no"?>
<!-- Created with Inkscape (http://www.inkscape.org/) -->

<svg
   xmlns:dc="http://purl.org/dc/elements/1.1/"
   xmlns:cc="http://creativecommons.org/ns#"
   xmlns:rdf="http://www.w3.org/1999/02/22-rdf-syntax-ns#"
   xmlns:svg="http://www.w3.org/2000/svg"
   xmlns="http://www.w3.org/2000/svg"
   xmlns:sodipodi="http://sodipodi.sourceforge.net/DTD/sodipodi-0.dtd"
   xmlns:inkscape="http://www.inkscape.org/namespaces/inkscape"
   width="744.09448819"
   height="1052.3622047"
   id="svg3001"
   version="1.1"
   inkscape:version="0.48.4 r9939"
   sodipodi:docname="New document 3">
  <defs
     id="defs3003" />
  <sodipodi:namedview
     id="base"
     pagecolor="#ffffff"
     bordercolor="#666666"
     borderopacity="1.0"
     inkscape:pageopacity="0.0"
     inkscape:pageshadow="2"
     inkscape:zoom="5.6"
     inkscape:cx="346.58139"
     inkscape:cy="453.82892"
     inkscape:document-units="px"
     inkscape:current-layer="layer1"
     showgrid="false"
     inkscape:window-width="1366"
     inkscape:window-height="705"
     inkscape:window-x="-8"
     inkscape:window-y="-8"
     inkscape:window-maximized="1" />
  <metadata
     id="metadata3006">
    <rdf:RDF>
      <cc:Work
         rdf:about="">
        <dc:format>image/svg+xml</dc:format>
        <dc:type
           rdf:resource="http://purl.org/dc/dcmitype/StillImage" />
        <dc:title></dc:title>
      </cc:Work>
    </rdf:RDF>
  </metadata>
  <g
     inkscape:groupmode="layer"
     id="layer2"
     inkscape:label="Layer" />
  <g
     inkscape:label="Layer 1"
     inkscape:groupmode="layer"
     id="layer1">
    <path
       style="fill:none;stroke:#000000;stroke-width:1px;stroke-linecap:butt;stroke-linejoin:miter;stroke-opacity:1"
       d="m 393.21428,636.29075 -75.89285,13.57144 -1.66517,-2.43068 0.30486,-7.96764 1.65635,2.35425 -0.2742,7.69715"
       id="path3009"
       inkscape:connector-curvature="0"
       sodipodi:nodetypes="cccccc" />
    <path
       style="fill:none;stroke:#000000;stroke-width:1px;stroke-linecap:butt;stroke-linejoin:miter;stroke-opacity:1"
       d="m 317.66977,641.81812 75.21829,-12.64986 -0.2742,7.16144"
       id="path3015"
       inkscape:connector-curvature="0"
       sodipodi:nodetypes="ccc" />
    <path
       style="fill:none;stroke:#000000;stroke-width:1px;stroke-linecap:butt;stroke-linejoin:miter;stroke-opacity:1"
       d="m 315.59631,638.58633 33.9307,-5.06037 1.90519,2.39122"
       id="path3017"
       inkscape:connector-curvature="0"
       sodipodi:nodetypes="ccc" />
    <path
       style="fill:none;stroke:#000000;stroke-width:1px;stroke-linecap:butt;stroke-linejoin:miter;stroke-opacity:1"
       d="m 349.81019,633.5216 0.62237,-26.96491 m 0.63135,-22.1678 1.29551,2.08901 -0.82261,48.8819"
       id="path3019"
       inkscape:connector-curvature="0"
       sodipodi:nodetypes="ccccc" />
    <path
       style="fill:none;stroke:#000000;stroke-width:1px;stroke-linecap:butt;stroke-linejoin:miter;stroke-opacity:1"
       d="m 351.08557,583.97944 7.92431,-0.86593 1.30449,2.09799 -7.90265,1.19244"
       id="path3021"
       inkscape:connector-curvature="0"
       sodipodi:nodetypes="cccc" />
    <path
       style="fill:none;stroke:#000000;stroke-width:1px;stroke-linecap:butt;stroke-linejoin:miter;stroke-opacity:1"
       d="m 360.54524,585.61328 -0.41314,48.95718"
       id="path3023"
       inkscape:connector-curvature="0"
       sodipodi:nodetypes="cc" />
    <path
       style="fill:none;stroke:#000000;stroke-width:1px;stroke-linecap:butt;stroke-linejoin:miter;stroke-opacity:1"
       d="m 392.8664,629.00502 -2.1667,-2.33521 -30.36739,4.97"
       id="path3025"
       inkscape:connector-curvature="0"
       sodipodi:nodetypes="ccc" />
    <path
       style="fill:none;stroke:#000000;stroke-width:1px;stroke-linecap:butt;stroke-linejoin:miter;stroke-opacity:1"
       d="m 350.02488,617.72092 -44.07304,8.0156 -1.66517,-2.43068 0.30486,-7.96764 1.65635,2.35425 -0.2742,7.69715"
       id="path3009-1"
       inkscape:connector-curvature="0"
       sodipodi:nodetypes="cccccc" />
    <path
       style="fill:none;stroke:#000000;stroke-width:1px;stroke-linecap:butt;stroke-linejoin:miter;stroke-opacity:1"
       d="m 306.30018,617.69245 43.01968,-7.22029"
       id="path3015-3"
       inkscape:connector-curvature="0"
       sodipodi:nodetypes="cc" />
    <path
       style="fill:none;stroke:#000000;stroke-width:1px;stroke-linecap:butt;stroke-linejoin:miter;stroke-opacity:1"
       d="m 304.22672,614.46066 33.9307,-5.06037 1.90519,2.39122"
       id="path3017-8"
       inkscape:connector-curvature="0"
       sodipodi:nodetypes="ccc" />
    <path
       style="fill:none;stroke:#000000;stroke-width:1px;stroke-linecap:butt;stroke-linejoin:miter;stroke-opacity:1"
       d="m 338.69314,609.95766 0.62237,-49.31563 1.80059,1.96274 m -0.34183,24.89974 -0.60705,23.72962"
       id="path3019-9"
       inkscape:connector-curvature="0"
       sodipodi:nodetypes="ccccc" />
    <path
       style="fill:none;stroke:#000000;stroke-width:1px;stroke-linecap:butt;stroke-linejoin:miter;stroke-opacity:1"
       d="m 338.95837,559.98004 8.68192,-0.9922 1.30449,2.09799 -7.90265,1.19244"
       id="path3021-3"
       inkscape:connector-curvature="0"
       sodipodi:nodetypes="cccc" />
    <path
       style="fill:none;stroke:#000000;stroke-width:1px;stroke-linecap:butt;stroke-linejoin:miter;stroke-opacity:1"
       d="m 348.73863,603.45601 0.0239,6.98878"
       id="path3023-4"
       inkscape:connector-curvature="0"
       sodipodi:nodetypes="cc" />
    <path
       style="fill:none;stroke:#000000;stroke-width:1px;stroke-linecap:butt;stroke-linejoin:miter;stroke-opacity:1"
       d="m 350.03569,607.65804 -1.1361,0.10864"
       id="path3025-4"
       inkscape:connector-curvature="0"
       sodipodi:nodetypes="cc" />
    <path
       style="fill:none;stroke:#000000;stroke-width:1px;stroke-linecap:butt;stroke-linejoin:miter;stroke-opacity:1"
       d="m 350.3018,610.27143 -1.45177,0.36117"
       id="path3025-4-6"
       inkscape:connector-curvature="0"
       sodipodi:nodetypes="cc" />
    <path
       style="fill:none;stroke:#000000;stroke-width:1px;stroke-linecap:butt;stroke-linejoin:miter;stroke-opacity:1"
       d="m 360.69443,608.86568 20.57543,-3.89986 -0.2742,7.16144"
       id="path3015-0"
       inkscape:connector-curvature="0"
       sodipodi:nodetypes="ccc" />
    <path
       style="fill:none;stroke:#000000;stroke-width:1px;stroke-linecap:butt;stroke-linejoin:miter;stroke-opacity:1"
       d="m 381.26704,604.71239 -2.1667,-2.33521 -18.4031,3.18429"
       id="path3025-6"
       inkscape:connector-curvature="0"
       sodipodi:nodetypes="ccc" />
    <path
       style="fill:none;stroke:#000000;stroke-width:1px;stroke-linecap:butt;stroke-linejoin:miter;stroke-opacity:1"
       d="m 360.24565,615.97628 20.70813,-4.04061"
       id="path3449"
       inkscape:connector-curvature="0"
       sodipodi:nodetypes="cc" />
    <path
       style="fill:none;stroke:#000000;stroke-width:1px;stroke-linecap:butt;stroke-linejoin:miter;stroke-opacity:1"
       d="m 339.28499,560.67043 13.13198,26.01143"
       id="path3451"
       inkscape:connector-curvature="0" />
    <path
       style="fill:none;stroke:#000000;stroke-width:1px;stroke-linecap:butt;stroke-linejoin:miter;stroke-opacity:1"
       d="m 338.89086,583.78709 13.00571,25.25382"
       id="path3453"
       inkscape:connector-curvature="0"
       sodipodi:nodetypes="cc" />
    <path
       style="fill:none;stroke:#000000;stroke-width:1px;stroke-linecap:butt;stroke-linejoin:miter;stroke-opacity:1"
       d="m 348.75517,560.92297 0,18.68783"
       id="path3455"
       inkscape:connector-curvature="0"
       sodipodi:nodetypes="cc" />
    <path
       style="fill:none;stroke:#000000;stroke-width:1px;stroke-linecap:butt;stroke-linejoin:miter;stroke-opacity:1"
       d="m 341.6841,565.72119 1.44126,26.60253"
       id="path3457"
       inkscape:connector-curvature="0"
       sodipodi:nodetypes="cc" />
    <path
       style="fill:#c87137"
       d="m 317.95604,647.60064 c 0.042,-0.88877 0.11217,-2.45407 0.15595,-3.47842 0.0503,-1.17685 0.12883,-1.86247 0.21335,-1.86247 0.0736,0 16.7194,-2.78957 36.99076,-6.19904 20.27136,-3.40947 36.88534,-6.17071 36.91996,-6.13609 0.078,0.078 -0.14247,5.87236 -0.2266,5.95649 -0.0335,0.0335 -16.59202,3.01548 -36.79679,6.6267 -20.20477,3.61123 -36.87028,6.59802 -37.03447,6.63732 l -0.29852,0.0715 0.0764,-1.61596 z"
       id="path3496"
       inkscape:connector-curvature="0" />
    <path
       style="fill:#c87137"
       d="m 317.14173,640.1433 c -0.41991,-0.58704 -0.74588,-1.08036 -0.72439,-1.09626 0.0502,-0.0372 32.57052,-4.8723 32.75571,-4.87014 0.0766,9e-4 0.40389,0.33853 0.7274,0.7503 0.50007,0.63652 0.55489,0.75872 0.36587,0.81568 -0.12228,0.0369 -6.50106,1.12068 -14.17506,2.4085 -7.674,1.28782 -14.90523,2.50299 -16.0694,2.70038 l -2.11667,0.35889 -0.76346,-1.06735 z"
       id="path3498"
       inkscape:connector-curvature="0" />
    <path
       style="fill:#c87137"
       d="m 316.53776,647.7142 -0.29746,-0.41706 0.10806,-3.05534 0.10806,-3.05534 0.29207,0.40949 0.29207,0.40948 -0.10267,3.06292 -0.10266,3.06291 -0.29747,-0.41706 z"
       id="path3500"
       inkscape:connector-curvature="0" />
    <path
       style="fill:#c87137"
       d="m 352.12743,634.41434 c 0,-1.46617 0.74983,-45.98551 0.78873,-46.82892 l 0.032,-0.69431 3.4724,-0.52182 c 1.90982,-0.287 3.49361,-0.50262 3.51954,-0.47916 0.0675,0.0611 -0.36124,48.20264 -0.42994,48.27134 -0.0314,0.0314 -1.52073,0.30107 -3.30957,0.59922 -1.78883,0.29815 -3.4371,0.57581 -3.6628,0.61703 l -0.41038,0.0749 0,-1.03832 0,0 z"
       id="path3502"
       inkscape:connector-curvature="0" />
    <path
       style="fill:#c87137"
       d="m 360.71373,633.09194 0,-0.92227 0.41037,-0.0766 c 0.22571,-0.0421 6.91639,-1.1456 14.86819,-2.45215 l 14.4578,-2.37555 0.65301,0.71023 c 0.54552,0.59332 0.61826,0.72549 0.44194,0.80297 -0.11608,0.051 -6.48979,1.14482 -14.1638,2.43071 -7.674,1.28588 -14.56355,2.44304 -15.31012,2.57145 l -1.35739,0.23349 0,-0.92228 z"
       id="path3506"
       inkscape:connector-curvature="0" />
    <path
       style="fill:#c87137"
       d="m 360.84193,612.49182 c 0.001,-1.5105 0.0555,-2.83101 0.12088,-2.93448 0.0847,-0.13406 2.9239,-0.71979 9.87862,-2.03801 5.36782,-1.01744 9.77917,-1.8319 9.80299,-1.80992 0.0803,0.0741 -0.18155,5.60534 -0.26948,5.69327 -0.0795,0.0795 -19.01308,3.82371 -19.37711,3.83193 -0.1216,0.003 -0.15739,-0.62699 -0.1559,-2.74279 z"
       id="path3508"
       inkscape:connector-curvature="0" />
    <path
       style="fill:#c87137"
       d="m 360.96664,607.12538 3.7e-4,-1.04172 8.93317,-1.54229 8.93316,-1.54228 0.75172,0.74847 c 0.41345,0.41166 0.72596,0.77069 0.69448,0.79785 -0.0694,0.0599 -18.93165,3.62917 -19.15544,3.62478 -0.11329,-0.002 -0.15773,-0.29706 -0.15746,-1.04481 z"
       id="path3510"
       inkscape:connector-curvature="0" />
    <path
       style="fill:#c87137"
       d="m 306.59595,623.2796 c 0.0436,-0.98511 0.11344,-2.54399 0.15527,-3.46418 0.0418,-0.92018 0.12534,-1.67306 0.18555,-1.67306 0.0602,0 9.41464,-1.55766 20.7876,-3.46146 11.37297,-1.9038 20.97643,-3.49675 21.34104,-3.53988 l 0.66291,-0.0784 -0.002,2.9401 c -0.001,1.61706 -0.0438,3.00595 -0.095,3.08641 -0.0519,0.0815 -9.51022,1.85595 -21.36911,4.0089 -11.7018,2.12442 -21.38165,3.88737 -21.51075,3.91765 -0.22316,0.0523 -0.23084,-0.0333 -0.15555,-1.73605 z"
       id="path3512"
       inkscape:connector-curvature="0" />
    <path
       style="fill:#c87137"
       d="m 349.34951,609.12464 c 0,-0.66612 0.0388,-0.83127 0.19543,-0.83127 0.15934,0 0.18849,0.14388 0.15784,0.77916 -0.0233,0.48244 -0.0977,0.799 -0.19543,0.83127 -0.11556,0.0381 -0.15784,-0.17053 -0.15784,-0.77916 z"
       id="path3514"
       inkscape:connector-curvature="0" />
    <path
       style="fill:#c87137"
       d="m 305.73896,615.96421 c -0.44812,-0.64752 -0.65911,-1.05363 -0.55757,-1.07321 0.52319,-0.10088 32.41851,-4.82986 32.57569,-4.82986 0.26929,0 1.43148,1.50065 1.21563,1.56965 -0.28455,0.091 -32.00446,5.37514 -32.26597,5.37514 -0.16675,0 -0.48078,-0.33801 -0.96778,-1.04172 z"
       id="path3516"
       inkscape:connector-curvature="0" />
    <path
       style="fill:#c87137"
       d="m 305.09368,623.49332 c -0.1951,-0.29775 -0.2068,-0.62173 -0.12335,-3.41287 l 0.0922,-3.08389 0.30476,0.4485 0.30476,0.4485 -0.0885,2.90696 c -0.0487,1.59883 -0.13033,2.9328 -0.18142,2.96437 -0.0511,0.0316 -0.18988,-0.0906 -0.30843,-0.27157 z"
       id="path3518"
       inkscape:connector-curvature="0" />
    <path
       style="fill:#c87137"
       d="m 344.58659,569.90178 -3.56336,-7.03857 0.40663,-0.0704 c 1.72523,-0.2985 6.67344,-0.99211 6.72314,-0.94241 0.0341,0.0341 0.0474,3.44336 0.0295,7.57601 l -0.0326,7.51391 -3.56337,-7.03858 z"
       id="path3524"
       inkscape:connector-curvature="0" />
    <path
       style="fill:#c87137"
       d="m 340.52897,561.12269 c -0.28953,-0.32893 -0.5037,-0.62079 -0.47592,-0.64857 0.0278,-0.0278 1.52003,-0.21687 3.3161,-0.4202 1.79607,-0.20333 3.416,-0.39651 3.59984,-0.4293 0.2801,-0.05 0.38907,0.0232 0.67237,0.4513 0.18596,0.281 0.31915,0.52987 0.29598,0.55304 -0.0232,0.0232 -1.40534,0.24656 -3.07148,0.49642 -1.66615,0.24986 -3.2051,0.48603 -3.41991,0.52483 -0.3453,0.0624 -0.45153,0.001 -0.91698,-0.52752 l 0,0 z"
       id="path3526"
       inkscape:connector-curvature="0" />
    <path
       style="fill:#c87137"
       d=""
       id="path3528"
       inkscape:connector-curvature="0" />
    <path
       style="fill:#c87137"
       d="m 352.30882,585.17032 c -0.17855,-0.35236 -0.3049,-0.66039 -0.28077,-0.68451 0.0241,-0.0241 1.40586,-0.18954 3.07051,-0.36758 1.66466,-0.17804 3.15243,-0.34325 3.30615,-0.36713 0.20965,-0.0326 0.3619,0.0811 0.60924,0.45485 0.18135,0.27405 0.30929,0.51872 0.28431,0.5437 -0.025,0.025 -1.37874,0.24587 -3.00835,0.49086 -1.62961,0.24499 -3.11897,0.47357 -3.30968,0.50795 -0.31191,0.0562 -0.3794,-0.002 -0.67141,-0.57814 z"
       id="path3530"
       inkscape:connector-curvature="0" />
    <path
       style="fill:none;stroke:#000000;stroke-width:1px;stroke-linecap:butt;stroke-linejoin:miter;stroke-opacity:1"
       d="m 344.36866,571.0252 1.44126,26.60253"
       id="path3457-8"
       inkscape:connector-curvature="0"
       sodipodi:nodetypes="cc" />
    <path
       style="fill:none;stroke:#000000;stroke-width:1px;stroke-linecap:butt;stroke-linejoin:miter;stroke-opacity:1"
       d="m 347.04723,575.75735 1.44126,26.60253"
       id="path3457-4"
       inkscape:connector-curvature="0"
       sodipodi:nodetypes="cc" />
    <path
       style="fill:none;stroke:#000000;stroke-width:1px;stroke-linecap:butt;stroke-linejoin:miter;stroke-opacity:1"
       d="m 349.36865,580.66806 1.44126,26.60253"
       id="path3457-9"
       inkscape:connector-curvature="0"
       sodipodi:nodetypes="cc" />
    <path
       style="fill:none;stroke:#000000;stroke-width:1px;stroke-linecap:butt;stroke-linejoin:miter;stroke-opacity:1"
       d="m 339.63652,571.29306 1.1734,16.33467"
       id="path3457-6"
       inkscape:connector-curvature="0"
       sodipodi:nodetypes="cc" />
    <path
       style="fill:#c87137"
       d="m 352.22431,632.06945 c 0.0391,-1.82801 0.22735,-12.71412 0.41835,-24.19137 0.19101,-11.47724 0.37017,-20.88855 0.39814,-20.91402 0.0594,-0.054 6.31989,-0.96034 6.63392,-0.96034 0.19744,0 0.20615,0.80741 0.12769,11.83773 -0.0919,12.92549 -0.3423,36.1883 -0.39,36.23996 -0.041,0.0444 -2.39425,0.47492 -4.67926,0.85609 -1.04172,0.17376 -2.04835,0.34736 -2.23697,0.38577 l -0.34294,0.0698 0.0711,-3.32365 0,0 z"
       id="path3579"
       inkscape:connector-curvature="0" />
    <path
       style="fill:#c87137"
       d="m 340.78269,609.90014 c 0.002,-1.04994 0.46167,-19.12 0.50857,-19.98208 0.006,-0.10417 0.34366,0.46404 0.75108,1.26269 0.40743,0.79866 1.28343,2.50329 1.94668,3.78808 0.66324,1.28478 1.20701,2.41494 1.20836,2.51146 0.001,0.0965 0.0797,0.23857 0.1741,0.31567 0.0944,0.0771 0.79046,1.36184 1.5468,2.85497 l 1.37515,2.71479 -0.0336,3.35786 -0.0336,3.35786 -3.56508,0.59053 c -1.96079,0.32479 -3.6361,0.58941 -3.72291,0.58805 -0.11647,-0.002 -0.15724,-0.35823 -0.15557,-1.35988 z"
       id="path3581"
       inkscape:connector-curvature="0" />
    <path
       style="fill:#c87137"
       d="m 339.41131,610.08261 c -0.14132,-0.17088 -0.14652,-1.8409 -0.0312,-10.02695 0.0761,-5.40206 0.14084,-10.70265 0.14387,-11.77909 l 0.006,-1.95718 0.33155,0.63135 0.33156,0.63135 -0.2269,9.40704 c -0.30089,12.47423 -0.33817,13.35492 -0.55439,13.09348 z"
       id="path3583"
       inkscape:connector-curvature="0" />
    <path
       style="fill:#c87137"
       d="m 351.35079,606.33304 c -0.0886,-0.70469 -1.2353,-21.84309 -1.22272,-22.53903 l 0.007,-0.3788 0.24195,0.44194 c 0.13307,0.24307 0.24434,0.55081 0.24725,0.68388 0.003,0.13307 0.26627,0.66066 0.58524,1.17243 l 0.57995,0.93049 -0.17562,10.19179 c -0.0966,5.60548 -0.21489,9.87927 -0.2629,9.4973 z"
       id="path3587"
       inkscape:connector-curvature="0" />
    <path
       style="fill:#ff0000"
       d="m 351.0961,600.90347 c -0.42164,-7.36227 -0.84172,-15.58846 -0.83504,-16.35184 0.006,-0.64294 0.0263,-0.70984 0.13646,-0.44194 0.37221,0.90499 0.66694,1.50807 0.98735,2.0203 l 0.35544,0.56821 -0.11866,6.62913 c -0.0653,3.64602 -0.15895,7.73714 -0.20821,9.09137 l -0.0895,2.46225 -0.22779,-3.97748 z"
       id="path3593"
       inkscape:connector-curvature="0" />
    <path
       style="fill:#ff0000"
       d="m 347.00288,598.29827 -0.65921,-1.26327 -0.63508,-11.67126 c -0.34929,-6.41919 -0.63214,-11.72807 -0.62855,-11.79752 0.004,-0.0695 0.32537,0.49876 0.71505,1.26269 l 0.7085,1.38896 0.61077,11.11168 c 0.33591,6.11142 0.59657,11.36374 0.57924,11.67183 l -0.0315,0.56015 -0.65921,-1.26326 z"
       id="path3595"
       inkscape:connector-curvature="0" />
    <path
       style="fill:#ff0000"
       d="m 341.82411,588.17856 -0.52025,-1.10155 -0.52168,-7.63928 c -0.28692,-4.2016 -0.54783,-7.76713 -0.57979,-7.92338 -0.032,-0.15626 -0.14227,-0.28411 -0.24512,-0.28411 -0.16084,0 -0.18598,-0.49027 -0.17972,-3.50397 0.004,-1.92718 0.0466,-3.72208 0.0947,-3.98866 l 0.0874,-0.4847 0.59327,1.24232 0.59327,1.24231 0.62592,11.74302 c 0.34426,6.45866 0.61384,11.75574 0.59907,11.77128 -0.0148,0.0155 -0.26095,-0.46743 -0.54709,-1.07328 l 0,0 z"
       id="path3597"
       inkscape:connector-curvature="0" />
    <path
       style="fill:#000000"
       d="m 339.80154,584.31729 c -0.1071,-0.23506 -0.15222,-0.98054 -0.14092,-2.32855 l 0.0166,-1.9828 0.17133,2.14658 c 0.19038,2.38518 0.18415,2.67216 -0.047,2.16477 z"
       id="path3599"
       inkscape:connector-curvature="0" />
    <path
       style="fill:#000000"
       d="m 344.33029,593.10734 -0.66945,-1.34607 -0.61682,-11.30723 c -0.33925,-6.21898 -0.61679,-11.50611 -0.61675,-11.74918 6e-5,-0.39953 0.0657,-0.31715 0.68435,0.85838 l 0.68428,1.30032 0.63772,11.75912 c 0.35075,6.46752 0.62161,11.77523 0.60192,11.79492 -0.0197,0.0197 -0.33706,-0.56992 -0.70525,-1.31026 l 0,0 z"
       id="path3601"
       inkscape:connector-curvature="0" />
    <path
       style="fill:#000000"
       d="m 349.52897,603.13645 -0.52777,-1.03342 -0.57922,-11.11168 c -0.31857,-6.11142 -0.5739,-11.31055 -0.56741,-11.55362 0.0111,-0.41552 0.0413,-0.38156 0.50467,0.56821 l 0.49285,1.01015 0.61561,11.55362 c 0.33859,6.35449 0.60963,11.5641 0.60233,11.5769 -0.007,0.0128 -0.25079,-0.44177 -0.54106,-1.01016 l 0,0 z"
       id="path3603"
       inkscape:connector-curvature="0" />
    <path
       style="fill:#c87137"
       d="m 350.66192,634.05429 -0.31606,-0.42214 0.29299,-12.53099 c 0.16115,-6.89204 0.30907,-12.54706 0.32872,-12.5667 0.0196,-0.0196 0.13046,0.16657 0.24627,0.41381 l 0.21055,0.44953 -0.20558,12.51896 c -0.11307,6.88543 -0.21351,12.52812 -0.2232,12.53931 -0.01,0.0112 -0.15986,-0.16961 -0.33369,-0.40178 l 0,0 z"
       id="path3605"
       inkscape:connector-curvature="0" />
  </g>
</svg>
