<?xml version="1.0" encoding="UTF-8" standalone="no"?>
<!-- Created with Inkscape (http://www.inkscape.org/) -->

<svg
   xmlns:dc="http://purl.org/dc/elements/1.1/"
   xmlns:cc="http://creativecommons.org/ns#"
   xmlns:rdf="http://www.w3.org/1999/02/22-rdf-syntax-ns#"
   xmlns:svg="http://www.w3.org/2000/svg"
   xmlns="http://www.w3.org/2000/svg"
   xmlns:sodipodi="http://sodipodi.sourceforge.net/DTD/sodipodi-0.dtd"
   xmlns:inkscape="http://www.inkscape.org/namespaces/inkscape"
   width="744.09448819"
   height="1052.3622047"
   id="svg3288"
   version="1.1"
   inkscape:version="0.48.4 r9939"
   sodipodi:docname="New document 9">
  <defs
     id="defs3290">
    <inkscape:path-effect
       effect="gears"
       id="path-effect3302"
       is_visible="true"
       teeth="72"
       phi="5" />
    <inkscape:path-effect
       effect="gears"
       id="path-effect3298"
       is_visible="true"
       teeth="9"
       phi="4.4" />
  </defs>
  <sodipodi:namedview
     id="base"
     pagecolor="#ffffff"
     bordercolor="#666666"
     borderopacity="1.0"
     inkscape:pageopacity="0.0"
     inkscape:pageshadow="2"
     inkscape:zoom="2.8"
     inkscape:cx="245.86166"
     inkscape:cy="538.29949"
     inkscape:document-units="px"
     inkscape:current-layer="layer1"
     showgrid="false"
     inkscape:window-width="1366"
     inkscape:window-height="705"
     inkscape:window-x="-8"
     inkscape:window-y="-8"
     inkscape:window-maximized="1" />
  <metadata
     id="metadata3293">
    <rdf:RDF>
      <cc:Work
         rdf:about="">
        <dc:format>image/svg+xml</dc:format>
        <dc:type
           rdf:resource="http://purl.org/dc/dcmitype/StillImage" />
        <dc:title></dc:title>
      </cc:Work>
    </rdf:RDF>
  </metadata>
  <g
     inkscape:label="Layer 1"
     inkscape:groupmode="layer"
     id="layer1">
    <path
       style="fill:none;stroke:#000000;stroke-width:1px;stroke-linecap:butt;stroke-linejoin:miter;stroke-opacity:1"
       d="m 181.42857,496.6479 c -0.23809,-1.19048 -0.47619,-2.38096 -0.71428,-3.57143 -0.2381,-0.2381 -0.56371,-0.41312 -0.71429,-0.71429 -0.19076,-0.38151 0.19076,-1.04706 0,-1.42857 -0.15058,-0.30117 -0.37757,-0.71429 -0.71429,-0.71429 -0.23809,0 0,0.4762 0,0.71429 0,0.2381 -0.10647,0.50133 0,0.71429 0.15059,0.30117 0.56371,0.41311 0.71429,0.71428 0.10648,0.21296 -0.16836,0.54593 0,0.71429 0.16836,0.16836 0.47619,0 0.71429,0 0.23809,0 0.50132,0.10648 0.71428,0 1.57933,-0.78966 0.22166,-0.44332 0.71429,-1.42857 0.15058,-0.30117 0.47619,-0.47619 0.71428,-0.71429 0.47619,-0.47619 0.95238,-0.95238 1.42857,-1.42857 0.2381,-0.2381 0.37757,-0.71429 0.71429,-0.71429 0.33672,0 0.95238,0.47619 0.71429,0.71429 -0.2381,0.23809 -1.05101,-0.71429 -0.71429,-0.71429 1.31616,0 1.04169,1.08135 2.14286,0.71429 0.50507,-0.16836 0.92349,-0.54593 1.42857,-0.71429 0.35454,-0.11818 2.08203,-0.0608 2.14286,0 0.39161,0.39162 -0.74897,2.87449 0.71428,2.14286 0.30117,-0.15058 0.41312,-0.5637 0.71429,-0.71429 0.38059,-0.19029 1.04797,0.1903 1.42857,0 0.30117,-0.15058 0.41312,-0.5637 0.71428,-0.71428 0.21296,-0.10648 0.47619,0 0.71429,0 0.2381,0 0.54593,-0.16836 0.71429,0 0.17188,0.17188 -0.17188,2.68526 0,2.85714 0.16835,0.16836 0.47619,0 0.71428,0 1.19048,0 2.38095,0 3.57143,0 0.2381,0 0.54593,-0.16836 0.71429,0 0.0714,0.0714 0.0714,2.07143 0,2.14286 -0.16836,0.16836 -0.54593,-0.16836 -0.71429,0 -0.16836,0.16836 0,0.47619 0,0.71428 0,0.2381 -0.16836,0.54593 0,0.71429 0.16836,0.16836 0.47619,0 0.71429,0 0.23809,0 0.54592,0.16836 0.71428,0 0.16836,-0.16836 -0.21296,-0.60781 0,-0.71429 0.63888,-0.31943 1.42857,0 2.14286,0 0.23809,0 0.47619,0 0.71428,0 0.2381,0 0.60781,-0.21295 0.71429,0 1.48634,2.97269 -0.71429,0.2381 -0.71429,2.14286 0,0.2381 0.48841,0.0753 0.71429,0 0.50508,-0.16836 0.9235,-0.54592 1.42857,-0.71428 0.22588,-0.0753 0.50133,0.10648 0.71429,0 1.76529,-0.88265 -0.24656,-0.71429 1.42857,-0.71429 0.23809,0 0.54593,-0.16836 0.71428,0 0.35715,0.35714 -0.35714,1.78571 0,2.14286 0.16836,0.16836 0.47619,0 0.71429,0 0.2381,0 0.48841,0.0753 0.71429,0 0.50507,-0.16836 0.91207,-0.58516 1.42857,-0.71429 0.46197,-0.11549 0.9666,0.1155 1.42857,0 0.5165,-0.12912 0.91207,-0.58516 1.42857,-0.71428 0.56187,-0.14047 3.54291,0 4.28571,0 0.2381,0 -0.47619,0 -0.71428,0 -0.2381,0 -0.47619,0 -0.71429,0 -0.23809,0 -0.71428,0.23809 -0.71428,0 0,-0.2381 0.48841,-0.0753 0.71428,0 0.50508,0.16836 0.9235,0.54592 1.42857,0.71428 0.22588,0.0753 0.50133,-0.10648 0.71429,0 0.30117,0.15059 0.39485,0.60781 0.71429,0.71429 0.003,0.001 2.14217,-6.8e-4 2.14285,0 0.16836,0.16836 0,0.47619 0,0.71428 0,0.2381 0.16836,0.54593 0,0.71429 -0.16836,0.16836 -0.54592,-0.16836 -0.71428,0 -0.10074,0.10073 -0.0733,1.99634 0,2.14286 0.15058,0.30117 0.38762,0.63262 0.71428,0.71428 0.69296,0.17324 1.42857,0 2.14286,0 0.47619,0 0.97682,-0.15058 1.42857,0 0.31944,0.10648 0.43412,0.52751 0.71429,0.71429 0.44298,0.29532 1.19047,0.23809 1.42857,0.71428 0.0355,0.0711 -2.01409,1.88532 -2.14286,2.14286 -0.57143,1.14286 0.33334,0.52381 0.71429,0.71429 0.30117,0.15058 0.47619,0.47619 0.71428,0.71428 0.2381,0.2381 0.71429,0.37757 0.71429,0.71429 0,0.47619 -1.00265,-0.21296 -1.42857,0 -0.88265,0.44132 -0.71429,0.68963 -0.71429,1.42857 0,0.23809 0,0.47619 0,0.71428 0,0.2381 -0.16836,0.54593 0,0.71429 0.70463,0.70463 1.42857,-1.46363 1.42857,0.71429 0,0.23809 0.16836,0.54592 0,0.71428 -0.16836,0.16836 -0.47619,0 -0.71428,0 -0.16974,0 -2.69705,-0.08 -2.85715,0 -0.30116,0.15059 -0.5637,0.41312 -0.71428,0.71429 -0.50379,1.00758 1.09038,1.46647 1.42857,2.14285 0.10648,0.21296 0,0.4762 0,0.71429 0,0.2381 0.21296,0.60781 0,0.71429 -0.42592,0.21296 -0.95238,0 -1.42857,0 -0.2381,0 -0.54593,-0.16836 -0.71429,0 -0.16836,0.16836 0.16836,0.54592 0,0.71428 -0.16836,0.16836 -0.50132,-0.10648 -0.71428,0 -0.30117,0.15059 -0.5637,0.41312 -0.71429,0.71429 -0.0187,0.0374 -0.0187,2.10549 0,2.14285 0.15059,0.30117 0.5637,0.41312 0.71429,0.71429 0.10648,0.21296 -0.16836,0.54593 0,0.71429 0.16836,0.16836 0.71428,-0.2381 0.71428,0 0,0.23809 -0.54592,-0.16836 -0.71428,0 -0.16836,0.16836 0.0753,0.48841 0,0.71428 -0.2381,0.47619 -0.47619,0.95238 -0.71429,1.42857 -0.23809,0 -0.54593,-0.16836 -0.71428,0 -0.33672,0.33672 0.21295,1.00266 0,1.42857 -0.65751,1.31502 -1.48536,0.11357 -2.14286,1.42858 -0.21296,0.42591 0.21296,1.00265 0,1.42857 -0.15059,0.30117 -0.5637,0.41311 -0.71429,0.71428 -0.10648,0.21296 0.10648,0.50133 0,0.71429 -0.44132,0.88264 -0.68963,0.71428 -1.42857,0.71428 -0.73894,0 -0.98725,0.16836 -1.42857,-0.71428 -0.10648,-0.21296 0.16836,-0.54593 0,-0.71429 -0.16836,-0.16836 -0.54593,0.16836 -0.71429,0 -0.16835,-0.16836 0.16836,-0.54592 0,-0.71428 -0.16835,-0.16836 -0.47619,0 -0.71428,0 -0.2381,0 -0.60781,-0.21296 -0.71429,0 -0.21296,0.42592 0.15059,0.97682 0,1.42857 -0.10648,0.31944 -0.5637,0.41312 -0.71428,0.71428 -0.10648,0.21296 0.0753,0.48841 0,0.71429 -0.16836,0.50508 -0.54593,0.9235 -0.71429,1.42857 -0.0753,0.22588 0.16836,0.54593 0,0.71429 -0.16836,0.16836 -0.54593,0.16836 -0.71428,0 -1.47789,-1.47788 2.2584,0.0578 -0.71429,-1.42857 -1.24108,-0.62054 -1.52618,2.24047 -2.14286,2.85714 -0.16836,0.16836 -0.54592,-0.16836 -0.71428,0 -1.47789,1.47788 2.2584,-0.0578 -0.71429,1.42857 -0.83756,0.41878 -0.84777,-0.42389 -1.42857,-0.71429 -0.21296,-0.10647 -0.60781,0.21296 -0.71429,0 -0.21295,-0.42591 0.26415,-1.03235 0,-1.42857 -0.29532,-0.44298 -1.05211,-0.33782 -1.42857,-0.71428 -0.31746,-0.31746 0.55556,-1.34921 -0.71428,-0.71429 -1.30066,0.65033 -0.41871,0.54184 -0.71429,1.42857 -0.16836,0.50508 -0.54593,0.9235 -0.71428,1.42857 -0.0753,0.22588 0.16835,0.54593 0,0.71429 -0.16836,0.16836 -0.47619,0 -0.71429,0 -0.2381,0 -0.50133,0.10648 -0.71429,0 -0.30116,-0.15058 -0.5637,-0.41312 -0.71428,-0.71429 -0.10648,-0.21295 0.16836,-0.54592 0,-0.71428 -0.16836,-0.16836 -0.54593,-0.16836 -0.71429,0 -0.16836,0.16836 0,0.47619 0,0.71428 0,0.87192 0.27718,1.64713 -0.71428,2.14286 -0.0374,0.0187 -2.10549,0.0187 -2.14286,0 -0.30117,-0.15058 -0.41312,-0.5637 -0.71429,-0.71428 -0.21295,-0.10648 -0.47619,0 -0.71428,0 -0.2381,0 -0.54593,-0.16836 -0.71429,0 -0.33671,0.33671 0.33672,1.09185 0,1.42857 -0.16836,0.16836 -0.47619,0 -0.71428,0 -0.2381,0 -0.50133,0.10648 -0.71429,0 -0.18596,-0.093 -0.87019,-1.27266 -1.42857,-0.71429 -0.16836,0.16836 0.10648,0.50133 0,0.71429 -0.15058,0.30117 -0.5637,0.41311 -0.71429,0.71428 -0.10647,0.21296 0.16836,0.54593 0,0.71429 -0.16835,0.16836 -0.47619,0 -0.71428,0 -0.2381,0 -0.51618,0.13207 -0.71429,0 -0.35778,-0.23853 -3.99139,-3.89329 -4.28571,-4.28572 -0.31944,-0.42591 -0.41897,-0.98559 -0.71429,-1.42857 -0.3255,-0.48826 -2.64815,-2.71781 -2.85714,-2.85714 -0.19811,-0.13207 -0.60781,-0.21296 -0.71429,0 -0.21295,0.42592 0,0.95238 0,1.42857 0,1.66667 0,3.33334 0,5 0,0.47619 0.21296,1.00266 0,1.42857 -0.10647,0.21296 -0.54592,0.16836 -0.71428,0 -1.47788,-1.47788 2.2584,0.0578 -0.71429,-1.42857 -0.98525,-0.49263 -0.63891,0.86504 -1.42857,-0.71428 -0.19047,-0.38096 0.42857,-1.28572 -0.71428,-0.71429 -1.35513,0.67756 -0.20132,1.62989 -1.42858,2.85714 -0.16835,0.16836 -0.54592,0.16836 -0.71428,0 -0.16836,-0.16836 0.16836,-0.54592 0,-0.71428 -0.37646,-0.37646 -1.05211,-0.33783 -1.42857,-0.71429 -0.16836,-0.16836 0.10648,-0.50132 0,-0.71428 -0.15059,-0.30117 -0.47619,-0.47619 -0.71429,-0.71429 -0.23809,-0.23809 -0.47619,-0.47619 -0.71428,-0.71429 -0.2381,-0.23809 -0.37757,-0.71428 -0.71429,-0.71428 -0.2381,0 0,0.47619 0,0.71428 0,1.25726 0.59079,1.42858 -0.71429,1.42858 -0.23809,0 -0.50132,0.10648 -0.71428,0 -0.6331,-0.31655 -1.49263,-1.70938 -2.14286,-2.14286 -0.44298,-0.29532 -0.98559,-0.41897 -1.42857,-0.71429 -0.34682,-0.23121 -1.29078,-1.42857 -1.42857,-1.42857 -0.2381,0 0,0.47619 0,0.71429 0,0.23809 0,0.47619 0,0.71428 0,0.2381 0.23809,0.71429 0,0.71429 -0.2381,0 0.16836,-0.54593 0,-0.71429 -0.16836,-0.16836 -0.54593,0.16836 -0.71429,0 -0.37646,-0.37646 -0.33782,-1.05211 -0.71428,-1.42857 -0.16836,-0.16836 -0.60781,0.21296 -0.71429,0 -0.21296,-0.42592 0.26414,-1.03235 0,-1.42857 -0.29532,-0.44298 -1.05211,-0.33782 -1.42857,-0.71429 -0.16836,-0.16835 0.16836,-0.54592 0,-0.71428 -0.16836,-0.16836 -0.54593,0.16836 -0.71429,0 -0.16835,-0.16836 -0.23809,-0.71429 0,-0.71429 0.2381,0 0,0.95238 0,0.71429 0,-0.47619 0,-0.95238 0,-1.42857 0,-0.2381 0,-0.47619 0,-0.71429 0,-0.23809 -0.23809,-0.71428 0,-0.71428 0.33672,0 0.41312,0.5637 0.71429,0.71428 0.21296,0.10648 0.48841,-0.0753 0.71429,0 0.50507,0.16836 1.05211,1.09075 1.42857,0.71429 0.37646,-0.37646 -0.39485,-1.00266 -0.71429,-1.42857 -0.19629,-0.26173 -3.26658,-3.41901 -3.57143,-3.57143 -0.21296,-0.10648 -0.54592,0.16836 -0.71428,0 -0.16836,-0.16836 -0.21296,-0.60781 0,-0.71429 0.33022,-0.16511 3.39419,0.17724 3.57143,0 0.23809,-0.23809 -0.38763,-0.63262 -0.71429,-0.71428 -0.69048,-0.17262 -4.1486,0.13711 -4.28571,0 -0.16836,-0.16836 -0.0753,-0.48841 0,-0.71429 0.16835,-0.50508 0.54592,-0.92349 0.71428,-1.42857 0.15398,-0.46193 0,-2.7915 0,-3.57143 0,-3.9326 0,-3.68704 0,-7.14286 0,-0.23809 0,0.95238 0,0.71429 0,-0.47619 0,-0.95238 0,-1.42857 0,-0.47457 0,-0.95401 0,-1.42857 0,-0.2381 -0.23809,-0.71429 0,-0.71429 0.2381,0 -0.0753,0.48841 0,0.71429 0.2381,0.47619 0.47619,0.95238 0.71429,1.42857 0.23809,0 0.54592,-0.16836 0.71428,0 0.16836,0.16836 -0.16836,0.54592 0,0.71428 0.16836,0.16836 0.60781,0.21296 0.71429,0 0.21296,-0.42591 -0.15059,-0.97681 0,-1.42857 0.10648,-0.31944 0.60781,-0.39485 0.71428,-0.71428 0.15059,-0.45176 -0.11549,-0.9666 0,-1.42858 0.12913,-0.5165 0.54593,-0.92349 0.71429,-1.42857 0.0753,-0.22587 -0.10648,-0.50132 0,-0.71428 0.15058,-0.30117 0.47619,-0.47619 0.71429,-0.71429 0.23809,-0.23809 0.47619,-0.95238 0.71428,-0.71428 0.16421,0.16421 -0.13955,3.86706 0,4.28571 0.10648,0.31944 0.5637,0.41312 0.71429,0.71429 0.10648,0.21296 -0.10648,0.92724 0,0.71428 0.33671,-0.67343 0.53167,-1.41241 0.71428,-2.14286 0.0578,-0.23098 -0.10648,-0.50132 0,-0.71428 0.15059,-0.30117 0.63262,-0.38762 0.71429,-0.71429 0.17324,-0.69296 -0.17324,-1.44989 0,-2.14285 0.88264,-3.53058 0.71428,1.4948 0.71428,-1.42858 0,-0.23809 0,-0.95238 0,-0.71428 0,0.71428 0,1.42857 0,2.14286 0,0.47619 0.47619,1.42857 0,1.42857 -0.47619,0 0,-0.95238 0,-1.42857 0,-0.42527 -0.13398,-4.01776 0,-4.28572 0.10648,-0.21296 0.54593,0.16836 0.71429,0 0.16836,-0.16836 -0.16836,-0.54592 0,-0.71428 0.16836,-0.16836 0.60781,-0.21296 0.71429,0 0.31943,0.63887 0,1.42857 0,2.14285 0,0.2381 0,0.95238 0,0.71429 0,-0.7428 -0.14047,-3.72385 0,-4.28572 0.86231,-3.44924 0.33944,0.0354 1.42857,-2.14285 0.10648,-0.21296 -0.10648,-0.50133 0,-0.71429 0.15058,-0.30117 0.47619,-0.47619 0.71428,-0.71428 0.2381,-0.2381 0.37757,-0.71429 0.71429,-0.71429 0.23809,0 0,0.47619 0,0.71429 0,0.23809 0,0.47619 0,0.71428 0,0.2381 -0.10648,0.50133 0,0.71429 0.15058,0.30117 0.5637,0.41311 0.71428,0.71428 0.21905,0.4381 -0.57142,2.07143 0.71429,1.42857 1.92767,-0.96383 -0.0247,-0.32015 0.71429,-1.42857 0.37355,-0.56033 1.05501,-0.86824 1.42857,-1.42857 0.13207,-0.19811 -0.10648,-0.50132 0,-0.71428 0.15058,-0.30117 0.47619,-0.47619 0.71428,-0.71429 0.2381,-0.23809 0.37757,-0.71429 0.71429,-0.71429 0.23809,0 0,0.4762 0,0.71429 0,3.25163 -0.33672,0.0409 0.71428,2.14286 0.21296,0.42592 -0.33671,1.09185 0,1.42857 0.16836,0.16836 0.47619,0 0.71429,0 0.2381,0 0.54593,0.16836 0.71429,0 0.86998,-0.86999 0.33458,-1.59587 1.42857,-2.14286 1.19047,-0.59524 0.71428,0.95238 0.71428,1.42857 0,0.2381 0,0.95238 0,0.71429 0,-0.47619 -0.15058,-0.97682 0,-1.42857 0.37051,-1.11152 2.00647,-0.71429 2.85715,-0.71429 0.23809,0 0.54592,-0.16836 0.71428,0 0.16836,0.16836 0.2381,0.71429 0,0.71429 -0.33672,0 -0.47619,-0.47619 -0.71428,-0.71429 0.23809,1.42857 0.47619,2.85715 0.71428,4.28572 z"
       id="path3304"
       inkscape:connector-curvature="0" />
    <path
       style="fill:none;stroke:#000000;stroke-width:0.79973769px;stroke-linecap:butt;stroke-linejoin:miter;stroke-opacity:1"
       d="m 180.65617,501.08894 c -0.18863,-0.96109 -0.37726,-1.92218 -0.56588,-2.88326 -0.18863,-0.19222 -0.4466,-0.33352 -0.56588,-0.57666 -0.15114,-0.30799 0.15112,-0.8453 0,-1.1533 -0.1193,-0.24313 -0.29914,-0.57665 -0.56589,-0.57665 -0.18862,0 0,0.38444 0,0.57665 0,0.19222 -0.0843,0.40473 0,0.57666 0.1193,0.24313 0.44659,0.3335 0.56589,0.57664 0.0843,0.17193 -0.13339,0.44074 0,0.57666 0.13337,0.13592 0.37725,0 0.56588,0 0.18862,0 0.39716,0.0859 0.56588,0 1.2512,-0.6375 0.1756,-0.3579 0.56588,-1.1533 0.1193,-0.24314 0.37725,-0.38444 0.56588,-0.57666 0.37725,-0.38443 0.75451,-0.76886 1.13176,-1.1533 0.18864,-0.19221 0.29912,-0.57665 0.56589,-0.57665 0.26676,0 0.75451,0.38444 0.56588,0.57665 -0.18862,0.19221 -0.83265,-0.57665 -0.56588,-0.57665 1.0427,0 0.82526,0.87298 1.69764,0.57665 0.40014,-0.13591 0.73163,-0.44073 1.13178,-0.57665 0.28087,-0.0954 1.64945,-0.0491 1.69764,0 0.31025,0.31616 -0.59336,2.32061 0.56588,1.72995 0.23859,-0.12156 0.32729,-0.45508 0.56588,-0.57665 0.30152,-0.15363 0.83024,0.15363 1.13177,0 0.23859,-0.12157 0.32729,-0.45508 0.56587,-0.57665 0.16872,-0.0859 0.37726,0 0.56589,0 0.18863,0 0.43251,-0.13591 0.56588,0 0.13617,0.13877 -0.13617,2.16785 0,2.3066 0.13338,0.13592 0.37726,0 0.56588,0 0.94314,0 1.88627,0 2.82942,0 0.18862,0 0.4325,-0.13591 0.56588,0 0.0566,0.0577 0.0566,1.67229 0,1.72996 -0.13338,0.13592 -0.43251,-0.13592 -0.56588,0 -0.13339,0.13592 0,0.38443 0,0.57665 0,0.19222 -0.13339,0.44073 0,0.57666 0.13337,0.13591 0.37725,0 0.56588,0 0.18863,0 0.4325,0.13591 0.56588,0 0.13338,-0.13593 -0.16871,-0.4907 0,-0.57666 0.50614,-0.25788 1.13176,0 1.69765,0 0.18862,0 0.37726,0 0.56587,0 0.18864,0 0.48153,-0.17192 0.56589,0 1.17753,2.39988 -0.56589,0.19222 -0.56589,1.72995 0,0.19222 0.38694,0.0608 0.56589,0 0.40015,-0.13592 0.73163,-0.44072 1.13176,-0.57664 0.17895,-0.0608 0.39717,0.0859 0.56589,0 1.39853,-0.71258 -0.19534,-0.57665 1.13177,-0.57665 0.18861,0 0.4325,-0.13593 0.56587,0 0.28295,0.28831 -0.28294,1.44161 0,1.72995 0.13338,0.13592 0.37725,0 0.56589,0 0.18862,0 0.38693,0.0608 0.56588,0 0.40013,-0.13592 0.72258,-0.47241 1.13177,-0.57666 0.36599,-0.0932 0.76577,0.0933 1.13176,0 0.40918,-0.10424 0.72257,-0.47241 1.13176,-0.57664 0.44513,-0.11341 2.80682,0 3.39529,0 0.18864,0 -0.37725,0 -0.56587,0 -0.18864,0 -0.37726,0 -0.56589,0 -0.18862,0 -0.56587,0.19221 -0.56587,0 0,-0.19223 0.38693,-0.0608 0.56587,0 0.40014,0.13592 0.73162,0.44072 1.13176,0.57664 0.17895,0.0608 0.39718,-0.0859 0.56589,0 0.23859,0.12158 0.31281,0.49069 0.56588,0.57666 0.003,8e-4 1.69711,-5.5e-4 1.69764,0 0.13339,0.13592 0,0.38443 0,0.57664 0,0.19222 0.13339,0.44074 0,0.57666 -0.13337,0.13592 -0.43249,-0.13592 -0.56587,0 -0.0798,0.0814 -0.0581,1.61166 0,1.72995 0.11929,0.24314 0.30708,0.51072 0.56587,0.57665 0.54899,0.13985 1.13176,0 1.69765,0 0.37726,0 0.77388,-0.12157 1.13177,0 0.25307,0.0859 0.34392,0.42587 0.56589,0.57665 0.35094,0.23842 0.94312,0.19222 1.13176,0.57665 0.0281,0.0574 -1.59564,1.52204 -1.69765,1.72995 -0.45271,0.92265 0.26408,0.42288 0.56589,0.57665 0.23859,0.12157 0.37725,0.38444 0.56587,0.57665 0.18863,0.19223 0.56589,0.30482 0.56589,0.57666 0,0.38443 -0.79434,-0.17192 -1.13176,0 -0.69928,0.35628 -0.56589,0.55675 -0.56589,1.1533 0,0.19221 0,0.38443 0,0.57665 0,0.19222 -0.13339,0.44074 0,0.57665 0.55823,0.56886 1.13176,-1.1816 1.13176,0.57666 0,0.19221 0.13338,0.44073 0,0.57664 -0.13338,0.13592 -0.37726,0 -0.56587,0 -0.13448,0 -2.1367,-0.0646 -2.26355,0 -0.23858,0.12158 -0.44658,0.33352 -0.56587,0.57666 -0.39912,0.81343 0.86384,1.1839 1.13176,1.72994 0.0844,0.17193 0,0.38445 0,0.57666 0,0.19222 0.16872,0.49069 0,0.57665 -0.33743,0.17192 -0.7545,0 -1.13176,0 -0.18863,0 -0.4325,-0.13592 -0.56589,0 -0.13337,0.13592 0.13339,0.44073 0,0.57664 -0.13337,0.13593 -0.39716,-0.0859 -0.56587,0 -0.2386,0.12158 -0.44658,0.33352 -0.56589,0.57666 -0.0148,0.0302 -0.0148,1.69979 0,1.72995 0.11931,0.24314 0.44659,0.33352 0.56589,0.57666 0.0844,0.17192 -0.13338,0.44072 0,0.57665 0.13338,0.13592 0.56587,-0.19223 0.56587,0 0,0.19221 -0.43249,-0.13593 -0.56587,0 -0.13338,0.13592 0.0596,0.3943 0,0.57665 -0.18864,0.38442 -0.37725,0.76886 -0.56589,1.1533 -0.18862,0 -0.4325,-0.13592 -0.56588,0 -0.26676,0.27183 0.16871,0.80945 0,1.1533 -0.5209,1.06162 -1.17675,0.0917 -1.69764,1.1533 -0.16872,0.34385 0.16871,0.80945 0,1.1533 -0.11931,0.24314 -0.44659,0.33351 -0.56589,0.57665 -0.0844,0.17192 0.0843,0.40473 0,0.57665 -0.34963,0.71258 -0.54635,0.57665 -1.13176,0.57665 -0.58542,0 -0.78214,0.13593 -1.13177,-0.57665 -0.0844,-0.17192 0.13338,-0.44073 0,-0.57665 -0.13338,-0.13592 -0.4325,0.13592 -0.56589,0 -0.13336,-0.13592 0.13339,-0.44073 0,-0.57665 -0.13336,-0.13591 -0.37725,0 -0.56587,0 -0.18863,0 -0.48153,-0.17192 -0.56589,0 -0.16871,0.34385 0.11931,0.7886 0,1.1533 -0.0844,0.2579 -0.44658,0.33352 -0.56587,0.57665 -0.0843,0.17192 0.0596,0.3943 0,0.57665 -0.13338,0.40776 -0.43251,0.74556 -0.56589,1.15331 -0.0596,0.18236 0.13338,0.44073 0,0.57666 -0.13338,0.13591 -0.43251,0.13591 -0.56588,0 -1.17084,-1.19312 1.78919,0.0466 -0.56588,-1.15331 -0.98323,-0.50097 -1.2091,1.80875 -1.69765,2.30661 -0.13338,0.13591 -0.4325,-0.13592 -0.56588,0 -1.17083,1.1931 1.78919,-0.0467 -0.56589,1.15329 -0.66354,0.33809 -0.67163,-0.34221 -1.13176,-0.57665 -0.16872,-0.0859 -0.48153,0.17193 -0.56589,0 -0.1687,-0.34384 0.20928,-0.83343 0,-1.1533 -0.23396,-0.35763 -0.83351,-0.27272 -1.13176,-0.57664 -0.2515,-0.2563 0.44014,-1.08924 -0.56588,-0.57666 -1.03043,0.52502 -0.33171,0.43743 -0.56588,1.1533 -0.13338,0.40775 -0.43251,0.74555 -0.56588,1.1533 -0.0596,0.18236 0.13337,0.44074 0,0.57665 -0.13338,0.13592 -0.37726,0 -0.56588,0 -0.18864,0 -0.39717,0.0859 -0.56589,0 -0.23859,-0.12156 -0.44659,-0.33351 -0.56587,-0.57665 -0.0843,-0.17192 0.13337,-0.44073 0,-0.57664 -0.13339,-0.13592 -0.43251,-0.13592 -0.56589,0 -0.13339,0.13591 0,0.38442 0,0.57664 0,0.70391 0.21959,1.32974 -0.56589,1.72995 -0.0297,0.0151 -1.66804,0.0151 -1.69764,0 -0.2386,-0.12156 -0.32728,-0.45508 -0.56589,-0.57664 -0.1687,-0.0859 -0.37725,0 -0.56587,0 -0.18864,0 -0.43251,-0.13592 -0.56589,0 -0.26675,0.27182 0.26676,0.88146 0,1.1533 -0.13338,0.13592 -0.37725,0 -0.56588,0 -0.18863,0 -0.39717,0.0859 -0.56588,0 -0.14733,-0.0751 -0.68939,-1.02743 -1.13176,-0.57666 -0.13339,0.13592 0.0844,0.40473 0,0.57666 -0.1193,0.24314 -0.44659,0.33351 -0.56589,0.57664 -0.0844,0.17193 0.13338,0.44074 0,0.57666 -0.13338,0.13591 -0.37726,0 -0.56587,0 -0.18864,0 -0.40894,0.10663 -0.56589,0 -0.28345,-0.19257 -3.16213,-3.1431 -3.39529,-3.45991 -0.25307,-0.34384 -0.33193,-0.79568 -0.56589,-1.1533 -0.25787,-0.39418 -2.09796,-2.19412 -2.26352,-2.30661 -0.15696,-0.10662 -0.48153,-0.17192 -0.56589,0 -0.16871,0.34385 0,0.76888 0,1.15331 0,1.34552 0,2.69104 0,4.03655 0,0.38444 0.16871,0.80946 0,1.1533 -0.0843,0.17193 -0.4325,0.13592 -0.56588,0 -1.17083,-1.1931 1.78919,0.0467 -0.56589,-1.1533 -0.78054,-0.3977 -0.50616,0.69836 -1.13176,-0.57664 -0.15089,-0.30756 0.33953,-1.03798 -0.56588,-0.57666 -1.07358,0.547 -0.15949,1.31583 -1.13177,2.3066 -0.13338,0.13592 -0.4325,0.13592 -0.56588,0 -0.13338,-0.13591 0.13338,-0.44072 0,-0.57664 -0.29824,-0.30392 -0.83352,-0.27274 -1.13176,-0.57666 -0.13338,-0.13591 0.0844,-0.40472 0,-0.57664 -0.1193,-0.24314 -0.37726,-0.38444 -0.56588,-0.57666 -0.18863,-0.19221 -0.37726,-0.38443 -0.56588,-0.57665 -0.18863,-0.19222 -0.29913,-0.57664 -0.56588,-0.57664 -0.18864,0 0,0.38442 0,0.57664 0,1.015 0.46803,1.15331 -0.56589,1.15331 -0.18863,0 -0.39717,0.0859 -0.56589,0 -0.50156,-0.25555 -1.18251,-1.38001 -1.69764,-1.72995 -0.35095,-0.23843 -0.78082,-0.33825 -1.13176,-0.57666 -0.27476,-0.18666 -1.0226,-1.1533 -1.13177,-1.1533 -0.18863,0 0,0.38443 0,0.57666 0,0.1922 0,0.38442 0,0.57664 0,0.19222 0.18863,0.57666 0,0.57666 -0.18863,0 0.13338,-0.44074 0,-0.57666 -0.13338,-0.13592 -0.4325,0.13592 -0.56588,0 -0.29825,-0.30392 -0.26764,-0.84938 -0.56588,-1.1533 -0.13338,-0.13593 -0.48153,0.17193 -0.56588,0 -0.16872,-0.34385 0.20925,-0.83343 0,-1.15331 -0.23397,-0.35761 -0.83353,-0.27272 -1.13177,-0.57665 -0.13338,-0.13591 0.13338,-0.44072 0,-0.57665 -0.13338,-0.13591 -0.4325,0.13593 -0.56589,0 -0.13337,-0.13591 -0.18862,-0.57665 0,-0.57665 0.18863,0 0,0.76887 0,0.57665 0,-0.38442 0,-0.76886 0,-1.1533 0,-0.19221 0,-0.38443 0,-0.57665 0,-0.19221 -0.18862,-0.57665 0,-0.57665 0.26676,0 0.32729,0.45508 0.56589,0.57665 0.16872,0.0859 0.38694,-0.0608 0.56589,0 0.40013,0.13592 0.83351,0.88057 1.13176,0.57665 0.29824,-0.30392 -0.31281,-0.80945 -0.56588,-1.1533 -0.15551,-0.21129 -2.58791,-2.7602 -2.82942,-2.88325 -0.16871,-0.0859 -0.43249,0.13592 -0.56588,0 -0.13337,-0.13592 -0.16871,-0.4907 0,-0.57665 0.26161,-0.1333 2.689,0.14309 2.82942,0 0.18862,-0.19222 -0.3071,-0.51073 -0.56589,-0.57665 -0.54702,-0.13936 -3.28666,0.11069 -3.39529,0 -0.13338,-0.13593 -0.0596,-0.3943 0,-0.57665 0.13338,-0.40776 0.4325,-0.74555 0.56588,-1.15331 0.12198,-0.37291 0,-2.25361 0,-2.88325 0,-3.17483 0,-2.97659 0,-5.76651 0,-0.19222 0,0.76886 0,0.57665 0,-0.38443 0,-0.76887 0,-1.1533 0,-0.38312 0,-0.77019 0,-1.15331 0,-0.19221 -0.18863,-0.57665 0,-0.57665 0.18863,0 -0.0596,0.3943 0,0.57665 0.18863,0.38444 0.37726,0.76888 0.56588,1.15331 0.18863,0 0.4325,-0.13592 0.56588,0 0.13338,0.13592 -0.13338,0.44072 0,0.57665 0.13338,0.13592 0.48153,0.17192 0.56588,0 0.16872,-0.34384 -0.11929,-0.7886 0,-1.15331 0.0844,-0.25788 0.48153,-0.31876 0.56588,-0.57665 0.11931,-0.36471 -0.0915,-0.78034 0,-1.1533 0.10231,-0.41698 0.43251,-0.74554 0.56589,-1.1533 0.0597,-0.18235 -0.0844,-0.40472 0,-0.57665 0.11929,-0.24314 0.37726,-0.38444 0.56589,-0.57665 0.18862,-0.19221 0.37725,-0.76887 0.56588,-0.57665 0.13008,0.13257 -0.11057,3.12192 0,3.4599 0.0844,0.25789 0.44658,0.33352 0.56588,0.57665 0.0843,0.17193 -0.0844,0.74858 0,0.57665 0.26676,-0.54366 0.42121,-1.14025 0.56588,-1.72995 0.0458,-0.18647 -0.0844,-0.40472 0,-0.57665 0.1193,-0.24314 0.50118,-0.31293 0.56588,-0.57665 0.13725,-0.55944 -0.13724,-1.17051 0,-1.72995 0.69926,-2.85027 0.56588,1.20677 0.56588,-1.15331 0,-0.19221 0,-0.76886 0,-0.57664 0,0.57664 0,1.1533 0,1.72995 0,0.38444 0.37725,1.1533 0,1.1533 -0.37725,0 0,-0.76886 0,-1.1533 0,-0.34332 -0.10614,-3.24358 0,-3.45991 0.0843,-0.17192 0.43251,0.13592 0.56589,0 0.13337,-0.13592 -0.13338,-0.44072 0,-0.57664 0.13337,-0.13593 0.48152,-0.17193 0.56588,0 0.25306,0.51577 0,1.1533 0,1.72994 0,0.19222 0,0.76887 0,0.57666 0,-0.59967 -0.11128,-3.00631 0,-3.45991 0.68316,-2.78461 0.26892,0.0286 1.13176,-1.72995 0.0843,-0.17193 -0.0844,-0.40473 0,-0.57666 0.1193,-0.24314 0.37726,-0.38442 0.56588,-0.57664 0.18863,-0.19222 0.29912,-0.57666 0.56588,-0.57666 0.18863,0 0,0.38444 0,0.57666 0,0.19222 0,0.38443 0,0.57664 0,0.19223 -0.0844,0.40473 0,0.57666 0.1193,0.24313 0.44659,0.3335 0.56589,0.57664 0.17353,0.35369 -0.45271,1.67229 0.56589,1.15331 1.52716,-0.77811 -0.0195,-0.25847 0.56588,-1.15331 0.29594,-0.45235 0.83581,-0.70093 1.13176,-1.1533 0.10463,-0.15993 -0.0843,-0.40472 0,-0.57664 0.11929,-0.24314 0.37725,-0.38444 0.56588,-0.57666 0.18863,-0.19221 0.29912,-0.57665 0.56588,-0.57665 0.18863,0 0,0.38444 0,0.57665 0,2.62509 -0.26676,0.033 0.56588,1.72996 0.16871,0.34385 -0.26675,0.88146 0,1.1533 0.13339,0.13592 0.37725,0 0.56589,0 0.18863,0 0.43251,0.13592 0.56588,0 0.68923,-0.70235 0.26507,-1.28836 1.13176,-1.72996 0.94314,-0.48054 0.56588,0.76888 0.56588,1.1533 0,0.19223 0,0.76887 0,0.57666 0,-0.38443 -0.11929,-0.7886 0,-1.1533 0.29354,-0.89734 1.5896,-0.57666 2.26354,-0.57666 0.18862,0 0.43249,-0.13591 0.56588,0 0.13337,0.13592 0.18862,0.57666 0,0.57666 -0.26676,0 -0.37726,-0.38443 -0.56588,-0.57666 0.18862,1.1533 0.37725,2.30661 0.56588,3.45992 z"
       id="path3304-5"
       inkscape:connector-curvature="0" />
    <path
       style="fill:#000000"
       d="m 156.93058,520.07918 c 0.18735,-0.49278 0.26164,-3.23831 0.16669,-6.16071 -0.0942,-2.89949 -0.0762,-5.0709 0.0401,-4.82536 0.11625,0.24553 0.58836,0.44643 1.04912,0.44643 0.70755,0 0.92599,-0.30351 1.40543,-1.95273 0.31222,-1.07401 0.68462,-2.48026 0.82756,-3.125 0.24997,-1.12751 0.26676,-1.10409 0.43981,0.61344 0.10094,1.00176 0.0231,1.89733 -0.17722,2.03995 -0.20263,0.14424 -0.44948,3.15716 -0.57058,6.96428 -0.11739,3.69053 -0.23793,6.75023 -0.26786,6.79934 -0.0299,0.0491 -0.77365,0.0893 -1.65272,0.0893 -1.5554,0 -1.58923,-0.0239 -1.26033,-0.88893 z"
       id="path3324"
       inkscape:connector-curvature="0" />
    <path
       style="fill:#000000"
       d="m 166.65779,502.39668 c 0,-0.6875 0.0735,-0.96875 0.16333,-0.625 0.0898,0.34375 0.0898,0.90625 0,1.25 -0.0898,0.34375 -0.16333,0.0625 -0.16333,-0.625 z"
       id="path3326"
       inkscape:connector-curvature="0" />
    <path
       style="fill:#000000"
       d="m 165.54457,505.70025 c -0.0322,-0.90893 -0.19601,-1.16071 -0.75535,-1.16071 -0.83509,0 -0.95318,-0.5462 -0.18207,-0.8421 0.42794,-0.16422 0.50158,-0.74901 0.37583,-2.98464 -0.086,-1.52922 -0.0733,-2.4188 0.0283,-1.97684 0.1016,0.44197 0.40379,0.80358 0.67154,0.80358 0.67855,0 0.99153,-1.21158 0.72321,-2.79971 -0.17655,-1.04502 -0.0647,-1.54681 0.50687,-2.27341 0.40339,-0.51282 0.73442,-1.14813 0.73563,-1.41179 0.001,-0.26366 0.24228,-0.019 0.53571,0.54359 0.29344,0.56263 0.53352,1.32602 0.53352,1.69643 0,0.3704 0.24925,0.67346 0.55389,0.67346 0.43287,0 0.36091,0.25361 -0.32934,1.16071 -0.48577,0.63839 -1.00272,1.64286 -1.14876,2.23214 -0.14605,0.58929 -0.46543,1.23215 -0.70974,1.42858 -0.24432,0.19642 -0.52838,1 -0.63125,1.78571 -0.10287,0.78571 -0.34002,2.07143 -0.52699,2.85714 -0.3374,1.41783 -0.34026,1.41985 -0.38103,0.26786 l 0,0 z"
       id="path3328"
       inkscape:connector-curvature="0" />
    <path
       style="fill:#000000"
       d="m 171.43041,498.0619 c -0.45163,-1.43682 -0.5326,-2.43175 -0.21393,-2.6287 0.19715,-0.12184 0.35845,-0.46795 0.35845,-0.76912 0,-0.30118 0.32143,-0.95622 0.71429,-1.45566 0.52891,-0.6724 0.71428,-0.75654 0.71428,-0.32419 0,0.32113 0.1702,0.58388 0.37822,0.58388 0.20802,0 0.28095,0.15739 0.16206,0.34976 -0.11889,0.19237 -0.0532,0.65428 0.146,1.02648 0.28093,0.52492 0.20453,0.81937 -0.34063,1.31273 -0.38653,0.34981 -0.70279,0.8325 -0.70279,1.07265 0,0.24015 -0.23917,0.63512 -0.53149,0.87773 -0.42539,0.35304 -0.56202,0.34394 -0.68446,-0.0456 z"
       id="path3330"
       inkscape:connector-curvature="0" />
    <path
       style="fill:#000000"
       d="m 175.51212,498.64668 c -0.0219,-0.19643 -0.17186,-1.04018 -0.33336,-1.875 -0.25935,-1.34065 -0.21717,-1.51786 0.36129,-1.51786 0.36021,0 0.89469,-0.44196 1.18775,-0.98214 0.37988,-0.70024 0.53692,-0.80275 0.54712,-0.35714 0.0134,0.58651 1.07939,0.9354 1.09119,0.35714 0.003,-0.14732 0.14914,-0.49482 0.32474,-0.77221 0.45635,-0.72092 1.45379,0.34175 1.81214,1.93067 0.32955,1.46117 0.0407,1.9161 -0.51229,0.80687 -0.57928,-1.16192 -1.63006,-1.26581 -1.63006,-0.16116 0,0.67344 -0.23146,0.92069 -1.00713,1.07583 -0.56679,0.11336 -1.18082,0.56228 -1.40439,1.02678 -0.2185,0.45395 -0.41515,0.66465 -0.437,0.46822 z"
       id="path3332"
       inkscape:connector-curvature="0" />
    <path
       style="fill:#000000"
       d="m 205.15592,534.09311 c -0.43692,-0.73661 -1.02908,-1.33929 -1.31592,-1.33929 -0.28683,0 -0.43019,-0.14776 -0.31858,-0.32835 0.11161,-0.18059 -0.0396,-0.5709 -0.33606,-0.86734 -0.80276,-0.80276 -0.68929,-1.55102 0.12364,-0.81534 0.60222,0.54501 1.79757,0.49322 1.8639,-0.0807 0.12897,-1.11598 0.41082,-2.03883 0.74606,-2.44277 0.33544,-0.40418 0.49996,-0.39413 1.00316,0.0613 0.74422,0.67351 2.28645,0.70864 2.82125,0.0643 0.21931,-0.26425 0.50266,-1.00004 0.62967,-1.63508 0.15202,-0.7601 0.51884,-1.26407 1.07355,-1.47497 0.50248,-0.19105 0.84263,-0.61228 0.84263,-1.0435 0,-0.39772 0.14825,-0.72312 0.32944,-0.72312 0.5714,0 1.23274,-2.50925 0.78053,-2.96145 -0.59009,-0.5901 -0.4906,-2.03855 0.14003,-2.03855 0.29464,0 0.53571,-0.16072 0.53571,-0.35715 0,-0.19642 0.40179,-0.35714 0.89286,-0.35714 0.74552,0 0.89285,-0.16958 0.89285,-1.0277 0,-0.56523 -0.24107,-1.22777 -0.53571,-1.4723 -0.93409,-0.77523 -0.58364,-1.13664 0.98214,-1.01285 l 1.51786,0.11999 0,-1.25 c 0,-0.80952 -0.15731,-1.21853 -0.44643,-1.16071 -0.24553,0.0491 -0.44643,-0.15179 -0.44643,-0.44643 0,-0.29464 0.31195,-0.53571 0.69321,-0.53571 1.05923,0 1.26228,-0.70324 0.44037,-1.52516 l -0.73883,-0.73882 0.73445,-1.03143 c 0.40394,-0.56729 0.67673,-1.07082 0.60619,-1.11896 -1.40987,-0.96226 -2.32414,-1.29992 -3.51974,-1.29992 -1.0341,0 -1.51905,-0.17382 -1.68397,-0.60358 -0.12931,-0.33699 -0.0455,-0.66562 0.18978,-0.74405 0.23177,-0.0772 0.4214,-0.60921 0.4214,-1.18213 0,-0.87687 -0.14324,-1.04167 -0.90542,-1.04167 -0.49798,0 -1.30437,-0.26139 -1.79196,-0.58088 -1.26151,-0.82657 -4.89928,-0.63011 -7.39191,0.39921 -0.50141,0.20706 -0.625,0.074 -0.625,-0.67297 0,-0.78165 -0.16048,-0.93107 -1,-0.93107 -0.55,0 -1.19434,0.19435 -1.43188,0.43188 -0.33775,0.33775 -0.55379,0.25784 -0.99118,-0.36662 -0.30761,-0.43918 -0.74808,-0.7752 -0.97883,-0.74671 -0.23074,0.0285 -0.8615,0.0327 -1.40168,0.009 -0.84377,-0.0364 -0.98214,-0.19327 -0.98214,-1.11375 0,-1.0606 -0.0198,-1.07142 -1.96429,-1.07142 -1.93197,0 -1.96428,-0.0171 -1.96428,-1.04167 0,-1.21133 -0.47729,-1.46585 -1.96193,-1.04622 -1.52195,0.43018 -1.96664,0.37737 -1.96664,-0.23354 0,-0.63014 -2.1488,-0.74881 -3.21609,-0.17761 -0.44729,0.23938 -0.74251,0.23938 -0.89046,0 -0.33523,-0.54241 -1.46166,-0.42874 -1.98361,0.20017 -0.41893,0.50478 -0.4949,0.50187 -0.79276,-0.0304 -0.23975,-0.4284 -0.12552,-0.77862 0.4196,-1.28648 0.41197,-0.3838 0.74903,-0.90462 0.74903,-1.15737 0,-0.94707 1.72509,-2.10371 3.2867,-2.20367 0.8441,-0.054 2.05705,-0.2121 2.69544,-0.35127 1.11518,-0.24312 1.16072,-0.20942 1.16072,0.85892 0,0.94083 0.13417,1.11196 0.87178,1.11196 0.47948,0 0.97111,-0.16071 1.0925,-0.35714 0.1214,-0.19643 0.60355,-0.35714 1.07143,-0.35714 0.46789,0 0.95003,-0.16072 1.07143,-0.35715 0.48116,-0.77853 0.89286,-0.2845 0.89286,1.07143 l 0,1.42857 2.5,0 c 1.42857,0 2.5,0.15307 2.5,0.35715 0,0.19643 -0.16072,0.35714 -0.35714,0.35714 -0.19643,0 -0.35715,0.65256 -0.35715,1.45013 l 0,1.45013 1.33929,-0.11084 c 0.90917,-0.0752 1.30592,-0.26829 1.23539,-0.60109 -0.068,-0.32116 0.096,-0.41354 0.47564,-0.26786 0.31874,0.12231 0.77962,0.22239 1.02418,0.22239 0.29091,0 0.39028,0.37046 0.2874,1.07143 -0.12691,0.86468 -0.0288,1.07039 0.50828,1.06605 0.76233,-0.006 3.20996,-0.81286 3.57554,-1.17843 0.46916,-0.46917 0.88673,-0.24027 0.69365,0.38023 -0.49979,1.60612 0.56046,1.79689 4.43206,0.79745 3.13879,-0.81026 4.45445,-0.81586 6.08941,-0.0259 0.84962,0.41049 1.75564,0.74634 2.01339,0.74634 0.32166,0 0.46863,0.53763 0.46863,1.71429 0,0.94285 0.19286,1.90714 0.42857,2.14285 0.23572,0.23572 1.20218,0.42857 2.14771,0.42857 0.94552,0 2.02642,0.19191 2.40199,0.42646 0.66195,0.41339 0.65633,0.45799 -0.18342,1.45597 -1.01146,1.20206 -1.09444,1.88297 -0.2847,2.33612 0.39762,0.22252 0.4541,0.40425 0.17857,0.57454 -0.22165,0.13699 -0.40301,1.04316 -0.40301,2.01371 0,1.6946 -0.0397,1.76463 -1,1.76463 -1.92057,0 -2.5219,1.92493 -1.0806,3.45913 l 0.77654,0.82659 -0.95239,0 c -0.52382,0 -1.35541,0.35041 -1.84797,0.77869 -0.71439,0.62115 -0.89558,1.11248 -0.89558,2.42857 0,0.90743 0.17668,1.82656 0.39263,2.0425 0.50686,0.50686 0.071,1.89309 -0.59526,1.89309 -0.47806,0 -0.56057,0.1695 -0.65851,1.35271 -0.0209,0.25292 -0.437,0.65874 -0.92458,0.90183 -0.48759,0.24309 -0.93904,0.75937 -1.00323,1.14729 -0.21875,1.32192 -1.17182,3.02675 -1.69209,3.02675 -0.28542,0 -0.51896,-0.13613 -0.51896,-0.3025 0,-0.78356 -1.40837,-1.84036 -2.4526,-1.84036 -0.88324,0 -1.11882,0.15142 -1.11882,0.71913 0,0.39552 -0.14899,0.9982 -0.33108,1.33929 -0.18209,0.34108 -0.41476,0.89266 -0.51705,1.22573 -0.14446,0.47037 -0.4585,0.56135 -1.40662,0.40748 -1.14848,-0.18637 -1.26044,-0.11186 -1.89367,1.26022 -0.37016,0.80206 -0.87908,1.46244 -1.13095,1.46751 -0.25187,0.005 -0.5933,0.37082 -0.75874,0.81278 -0.28888,0.77174 -0.33226,0.75053 -1.09519,-0.53571 z"
       id="path3334"
       inkscape:connector-curvature="0" />
    <path
       style="fill:#000000"
       d=""
       id="path3336"
       inkscape:connector-curvature="0" />
    <path
       style="fill:#000000"
       d="m 186.93207,537.57525 c -1.099,-1.13388 -1.14092,-1.25 -0.45127,-1.25 0.44195,0 0.85349,-0.29366 0.98289,-0.70136 0.17959,-0.56585 0.43275,-0.65934 1.31021,-0.48385 0.72499,0.145 1.18699,0.0567 1.38568,-0.26476 0.19655,-0.31801 0.85355,-0.44812 1.92898,-0.38198 1.22,0.075 1.68531,-0.0415 1.84685,-0.46245 0.13585,-0.35404 0.65061,-0.56274 1.38798,-0.56274 1.05672,0 1.19512,-0.123 1.40655,-1.25 0.12897,-0.6875 0.29443,-1.25 0.36768,-1.25 0.57903,0 1.26302,0.53125 1.26302,0.98098 0,0.66577 1.02352,1.49213 1.86735,1.50766 0.52833,0.01 0.55868,0.1401 0.21053,0.90421 -0.49132,1.07833 -0.88082,1.13702 -1.18502,0.17858 -0.14277,-0.44985 -0.54037,-0.71429 -1.07393,-0.71429 -0.72123,0 -0.86372,0.19919 -0.95808,1.33929 -0.0908,1.09715 -0.26357,1.36089 -0.95561,1.4588 -0.46462,0.0657 -1.01908,-0.0548 -1.23214,-0.26785 -0.21306,-0.21306 -0.90691,-0.38738 -1.54189,-0.38738 -0.85928,0 -1.21539,0.19184 -1.39262,0.75023 -0.17326,0.5459 -0.34518,0.64318 -0.63121,0.35715 -0.75172,-0.75172 -1.84313,-0.43477 -2.33584,0.67833 -0.26084,0.58929 -0.58998,1.07143 -0.73141,1.07143 -0.14143,0 -0.80235,-0.5625 -1.4687,-1.25 z"
       id="path3338"
       inkscape:connector-curvature="0" />
    <path
       style="fill:#000000"
       d="m 173.0035,537.0392 c -0.29464,-0.19023 -0.38256,-0.34833 -0.19537,-0.35134 0.18718,-0.003 -0.26773,-0.62818 -1.01092,-1.38928 l -1.35126,-1.38381 1.1002,-0.16148 c 0.60512,-0.0888 1.10021,-0.0209 1.10021,0.15087 0,0.17179 0.41534,0.69726 0.92298,1.16773 1.31607,1.21969 0.83999,2.87494 -0.56584,1.96731 z"
       id="path3340"
       inkscape:connector-curvature="0" />
    <path
       style="fill:#000000"
       d="m 167.56045,534.79773 c -3.96416,-3.4156 -4.24987,-3.61219 -4.54823,-3.12945 -0.21592,0.34938 -0.44762,0.17768 -0.87468,-0.64816 -0.31952,-0.61789 -0.8179,-1.12344 -1.1075,-1.12344 -0.28959,0 -0.52654,-0.22768 -0.52654,-0.50595 0,-0.27828 -0.20089,-0.5777 -0.44643,-0.66539 -0.24553,-0.0877 -0.31858,-0.2959 -0.16233,-0.46268 0.15626,-0.16677 0.59604,-0.10842 0.9773,0.12968 0.84244,0.52611 1.77432,0.56432 1.77432,0.0727 0,-0.21349 0.29088,-0.17851 0.71428,0.0859 0.39286,0.24534 0.71429,0.80921 0.71429,1.25303 0,0.44382 0.16071,0.80694 0.35714,0.80694 0.19643,0 0.6868,0.32965 1.0897,0.73256 0.48884,0.48884 0.97422,0.65585 1.45896,0.502 1.16869,-0.37093 2.40953,1.05108 2.38629,2.73471 -0.0105,0.76333 -0.12074,1.38353 -0.24491,1.37821 -0.12416,-0.005 -0.82691,-0.52763 -1.56166,-1.16071 z"
       id="path3342"
       inkscape:connector-curvature="0" />
    <path
       style="fill:#000000"
       d="m 160.6955,524.91436 -1.77229,-1.8034 1.44908,0 c 1.8269,0 2.56921,0.78601 2.29339,2.4284 l -0.19789,1.1784 -1.77229,-1.8034 z"
       id="path3344"
       inkscape:connector-curvature="0" />
    <path
       style="fill:#000000"
       d="m 177.89394,536.78944 c -0.35491,-0.092 -0.79657,-0.56515 -0.98148,-1.05149 -0.18491,-0.48634 -0.49721,-0.78474 -0.694,-0.66311 -0.1968,0.12162 -0.35782,-0.0403 -0.35782,-0.35972 0,-1.23672 2.81176,0.61915 2.84527,1.87799 0.007,0.24553 -0.0283,0.42778 -0.0774,0.405 -0.0491,-0.0228 -0.37966,-0.11669 -0.73456,-0.20867 z"
       id="path3346"
       inkscape:connector-curvature="0" />
    <path
       style="fill:#000000"
       d="m 161.44486,508.74349 c -0.40322,-1.50493 -0.30532,-1.75888 0.48721,-1.26393 0.83513,0.52155 0.91152,1.09454 0.2222,1.66663 -0.38906,0.32289 -0.5376,0.23856 -0.70941,-0.4027 z"
       id="path3348"
       inkscape:connector-curvature="0" />
    <path
       style="fill:#0000ff"
       d="m 182.99378,531.77481 c -1.83101,-2.09545 -3.362,-3.53078 -3.83929,-3.5994 -0.7605,-0.10933 -0.79385,-5.7e-4 -0.79385,2.58929 0,2.16493 -0.1067,2.70341 -0.53571,2.70341 -0.29464,0 -0.53571,-0.24612 -0.53571,-0.54692 0,-1.06116 -1.14769,-1.04951 -2.00072,0.0203 l -0.81508,1.0222 -1.38379,-1.55932 c -1.3966,-1.57377 -2.48533,-1.74083 -2.11496,-0.32453 0.0969,0.37069 0.0926,0.67398 -0.01,0.67398 -0.10226,0 -1.1186,-0.80799 -2.25853,-1.79554 -1.13994,-0.98754 -2.21169,-1.75093 -2.38167,-1.69643 -0.403,0.12921 -2.607,-2.12232 -2.607,-2.66322 0,-0.31007 0.10932,-0.30693 0.42857,0.0123 0.23571,0.23572 0.71786,0.42858 1.07143,0.42858 1.14204,0 0.72973,-1.49159 -0.86008,-3.11149 l -1.50293,-1.53137 0.96722,0 c 0.7109,0 0.96722,-0.17916 0.96722,-0.67608 0,-0.79938 -0.66793,-1.10964 -2.38885,-1.10964 -1.00132,0 -1.21463,-0.11562 -1.04222,-0.56492 0.11923,-0.31071 0.21678,-2.39495 0.21678,-4.63165 0,-3.45792 0.0798,-4.03612 0.5327,-3.8623 0.32572,0.12499 0.61339,-0.0528 0.74036,-0.45764 0.11421,-0.36413 0.35664,-0.94113 0.53873,-1.28221 0.18209,-0.34109 0.33473,-0.98394 0.3392,-1.42857 0.007,-0.69308 0.0909,-0.64052 0.58812,0.36839 0.70082,1.42199 1.53359,1.37833 2.01004,-0.10538 0.18923,-0.58929 0.56416,-1.32516 0.83317,-1.63527 0.26901,-0.31011 0.48911,-1.23421 0.48911,-2.05357 0,-1.08611 0.14514,-1.48973 0.53571,-1.48973 0.4046,0 0.53572,-0.43606 0.53572,-1.78163 0,-1.15166 0.21195,-2.02918 0.59942,-2.48171 0.72615,-0.84808 1.18629,-0.64079 1.18629,0.53441 0,0.55309 0.20442,0.87178 0.5592,0.87178 0.86705,0 1.98572,-0.7098 1.74149,-1.10499 -0.31935,-0.51671 0.52103,-1.38618 1.11828,-1.15699 0.28028,0.10755 0.5096,0.49978 0.5096,0.87162 0,0.90438 1.95091,0.9447 2.4714,0.0511 0.20202,-0.34686 0.36886,-0.42633 0.37489,-0.17857 0.0182,0.75022 0.98599,0.49609 1.19799,-0.31459 0.18026,-0.68934 0.25146,-0.70856 0.75594,-0.20408 0.30631,0.30631 0.55693,0.79634 0.55693,1.08895 0,0.94342 0.41969,1.66186 0.97081,1.66186 0.41636,0 0.48657,-0.27015 0.31203,-1.20054 -0.1601,-0.85342 -0.0683,-1.33075 0.31739,-1.65087 0.29844,-0.24769 0.54262,-0.64682 0.54262,-0.88697 0,-0.72068 1.1701,-1.52533 2.5,-1.7192 0.6875,-0.10023 1.61161,-0.29809 2.05357,-0.43969 0.66385,-0.2127 0.80358,-0.12407 0.80358,0.50968 0,0.94997 0.86564,1.3213 1.89909,0.81464 0.42871,-0.21019 1.14108,-0.48344 1.58305,-0.60724 0.7076,-0.19821 0.80357,-0.0943 0.80357,0.87041 0,1.08978 0.0103,1.09549 1.96429,1.09549 1.08035,0 1.96428,0.16072 1.96428,0.35715 0,0.19643 -0.16071,0.35714 -0.35714,0.35714 -0.19643,0 -0.35714,0.50285 -0.35714,1.11744 l 0,1.11744 1.83219,-0.24305 c 1.7256,-0.22891 1.82106,-0.20044 1.64067,0.48935 -0.10534,0.40282 -0.045,0.82298 0.13418,0.93369 0.36162,0.22349 2.71234,-0.4982 3.5134,-1.07865 0.39866,-0.28887 0.46586,-0.24506 0.3009,0.19617 -0.46643,1.24757 0.2347,1.55652 2.46122,1.08451 3.97488,-0.84264 4.34761,-0.85339 6.00198,-0.17302 1.48431,0.61043 1.61288,0.76426 1.61412,1.93112 0.002,1.64433 0.52714,2.125 2.32276,2.125 2.00934,0 2.55239,0.60098 1.52818,1.6912 -0.58942,0.62741 -0.70139,0.99289 -0.44393,1.44892 0.18938,0.33544 0.29491,1.29292 0.2345,2.12774 -0.0942,1.30182 -0.2238,1.51785 -0.91071,1.51785 -1.50934,0 -2.22196,1.58738 -1.12232,2.5 0.6917,0.57407 0.68477,1.07143 -0.0149,1.07143 -0.30286,0 -0.88829,0.31457 -1.30097,0.69903 -0.65468,0.60993 -0.72052,0.95256 -0.51653,2.68815 0.18761,1.59631 0.12715,2.03004 -0.30618,2.19633 -0.29698,0.11396 -0.53996,0.55368 -0.53996,0.97716 0,0.44507 -0.32836,0.91871 -0.77819,1.1225 -0.47075,0.21327 -0.93066,0.90563 -1.16413,1.75249 -0.46819,1.69833 -1.00982,1.95949 -1.55991,0.75216 -0.30577,-0.67107 -0.68372,-0.9021 -1.47578,-0.9021 -0.93277,0 -1.1178,0.17706 -1.49276,1.42857 -0.36721,1.22565 -0.57039,1.42857 -1.43034,1.42857 -0.67623,0 -1.13973,0.26144 -1.42465,0.80357 -0.23228,0.44197 -0.798,1.18466 -1.25716,1.65044 -0.75235,0.76319 -0.85828,0.7858 -1.07198,0.2289 -0.13043,-0.33989 -0.61572,-1.02647 -1.07842,-1.52574 -1.12252,-1.21121 -2.22864,-0.74689 -2.83276,1.18912 -0.39976,1.28112 -0.46062,1.33189 -0.69681,0.5814 -0.41112,-1.30632 -1.74311,-0.91448 -1.88474,0.55445 -0.0827,0.85767 -0.28699,1.16072 -0.78249,1.16072 -0.36882,0 -0.76991,-0.16072 -0.89131,-0.35715 -0.36756,-0.59472 -2.32143,-0.43385 -2.32143,0.19114 0,0.4331 -0.14644,0.46991 -0.69707,0.17522 -0.72023,-0.38546 -0.92589,-0.26076 -1.9044,1.15464 -0.38778,0.56092 -0.76011,0.2552 -3.47968,-2.85715 l 0,0 z"
       id="path3350"
       inkscape:connector-curvature="0" />
  </g>
</svg>
