<?xml version="1.0" encoding="UTF-8" standalone="no"?>
<!-- Created with Inkscape (http://www.inkscape.org/) -->

<svg
   xmlns:dc="http://purl.org/dc/elements/1.1/"
   xmlns:cc="http://creativecommons.org/ns#"
   xmlns:rdf="http://www.w3.org/1999/02/22-rdf-syntax-ns#"
   xmlns:svg="http://www.w3.org/2000/svg"
   xmlns="http://www.w3.org/2000/svg"
   xmlns:sodipodi="http://sodipodi.sourceforge.net/DTD/sodipodi-0.dtd"
   xmlns:inkscape="http://www.inkscape.org/namespaces/inkscape"
   width="744.09448819"
   height="1052.3622047"
   id="svg2"
   version="1.1"
   inkscape:version="0.48.4 r9939"
   sodipodi:docname="New document 1">
  <defs
     id="defs4" />
  <sodipodi:namedview
     id="base"
     pagecolor="#ffffff"
     bordercolor="#666666"
     borderopacity="1.0"
     inkscape:pageopacity="0.0"
     inkscape:pageshadow="2"
     inkscape:zoom="2.8"
     inkscape:cx="357.60799"
     inkscape:cy="666.2382"
     inkscape:document-units="px"
     inkscape:current-layer="layer1"
     showgrid="false"
     inkscape:window-width="1366"
     inkscape:window-height="705"
     inkscape:window-x="-8"
     inkscape:window-y="-8"
     inkscape:window-maximized="1" />
  <metadata
     id="metadata7">
    <rdf:RDF>
      <cc:Work
         rdf:about="">
        <dc:format>image/svg+xml</dc:format>
        <dc:type
           rdf:resource="http://purl.org/dc/dcmitype/StillImage" />
        <dc:title></dc:title>
      </cc:Work>
    </rdf:RDF>
  </metadata>
  <g
     inkscape:label="Layer 1"
     inkscape:groupmode="layer"
     id="layer1">
    <path
       sodipodi:type="arc"
       style="fill:#000000"
       id="path2987-4"
       sodipodi:cx="200"
       sodipodi:cy="423.79074"
       sodipodi:rx="40"
       sodipodi:ry="12.160568"
       d="m 240,423.79074 a 40,12.160568 0 1 1 -80,0 40,12.160568 0 1 1 80,0 z"
       transform="matrix(0.38128157,0,0,0.42887528,150.88655,204.4761)" />
    <path
       sodipodi:type="arc"
       style="fill:#000000"
       id="path2987-0"
       sodipodi:cx="200"
       sodipodi:cy="423.79074"
       sodipodi:rx="40"
       sodipodi:ry="12.160568"
       d="m 240,423.79074 a 40,12.160568 0 1 1 -80,0 40,12.160568 0 1 1 80,0 z"
       transform="matrix(0.38128157,0,0,0.42887528,239.45797,203.30007)" />
    <path
       style="fill:none;stroke:#000000;stroke-width:1px;stroke-linecap:butt;stroke-linejoin:miter;stroke-opacity:1"
       d="m 180.35714,385.21932 28.99675,-0.33458 c 9.36481,-6.06176 18.29008,-13.28229 34.8398,-0.40199 l 54.55554,-0.62949 c 10.77522,-9.56207 21.88778,-9.67875 33.33643,-0.38465 l 33.98577,-0.39214 0.35714,-24.64286 -28.92857,-5 L 324.64286,327.36218 230,326.29075 l -15,19.64286 -33.78063,6.47933 z"
       id="path3072"
       inkscape:connector-curvature="0"
       sodipodi:nodetypes="ccccccccccccc" />
    <path
       style="fill:none;stroke:#000000;stroke-width:1px;stroke-linecap:butt;stroke-linejoin:miter;stroke-opacity:1"
       d="m 366.07143,358.43361 13.57143,-16.78571 1.78571,22.14285 -14.64286,18.57143"
       id="path3074"
       inkscape:connector-curvature="0" />
    <path
       style="fill:none;stroke:#000000;stroke-width:1px;stroke-linecap:butt;stroke-linejoin:miter;stroke-opacity:1"
       d="m 378.92857,342.00504 -30.71428,-5.71429 -11.4719,-22.22951 -11.38525,13.30094"
       id="path3076"
       inkscape:connector-curvature="0"
       sodipodi:nodetypes="cccc" />
    <path
       style="fill:none;stroke:#000000;stroke-width:1px;stroke-linecap:butt;stroke-linejoin:miter;stroke-opacity:1"
       d="m 337.24746,313.8087 -101.53318,0.33919 -12.85714,19.28572 -31.19397,6.18347 -10.3392,12.18618"
       id="path3078"
       inkscape:connector-curvature="0"
       sodipodi:nodetypes="ccccc" />
    <path
       style="fill:none;stroke:#000000;stroke-width:1px;stroke-linecap:butt;stroke-linejoin:miter;stroke-opacity:1"
       d="m 236.04701,314.04527 -6.23731,12.26977"
       id="path3080"
       inkscape:connector-curvature="0"
       sodipodi:nodetypes="cc" />
    <path
       style="fill:none;stroke:#000000;stroke-width:1px;stroke-linecap:butt;stroke-linejoin:miter;stroke-opacity:1"
       d="m 336.4592,317.38013 9.43366,18.55348 -8.39286,13.57143 -10,-21.07143 z"
       id="path3082"
       inkscape:connector-curvature="0"
       sodipodi:nodetypes="ccccc" />
    <path
       sodipodi:type="arc"
       style="fill:#000000"
       id="path3084"
       sodipodi:cx="369.71582"
       sodipodi:cy="360.15515"
       sodipodi:rx="1.767767"
       sodipodi:ry="2.5253813"
       d="m 371.48359,360.15515 a 1.767767,2.5253813 0 1 1 -3.53554,0 1.767767,2.5253813 0 1 1 3.53554,0 z" />
    <path
       transform="translate(7.8286939,-10.101527)"
       sodipodi:type="arc"
       style="fill:#000000"
       id="path3084-9"
       sodipodi:cx="369.71582"
       sodipodi:cy="360.15515"
       sodipodi:rx="1.767767"
       sodipodi:ry="2.5253813"
       d="m 371.48359,360.15515 a 1.767767,2.5253813 0 1 1 -3.53554,0 1.767767,2.5253813 0 1 1 3.53554,0 z" />
  </g>
</svg>
