<?xml version="1.0" encoding="UTF-8" standalone="no"?>
<!-- Created with Inkscape (http://www.inkscape.org/) -->

<svg
   xmlns:dc="http://purl.org/dc/elements/1.1/"
   xmlns:cc="http://creativecommons.org/ns#"
   xmlns:rdf="http://www.w3.org/1999/02/22-rdf-syntax-ns#"
   xmlns:svg="http://www.w3.org/2000/svg"
   xmlns="http://www.w3.org/2000/svg"
   xmlns:sodipodi="http://sodipodi.sourceforge.net/DTD/sodipodi-0.dtd"
   xmlns:inkscape="http://www.inkscape.org/namespaces/inkscape"
   version="1.1"
   width="744.09448"
   height="1052.3622"
   id="svg3003"
   inkscape:version="0.48.2 r9819"
   sodipodi:docname="final.svg">
  <sodipodi:namedview
     pagecolor="#ffffff"
     bordercolor="#666666"
     borderopacity="1"
     objecttolerance="10"
     gridtolerance="10"
     guidetolerance="10"
     inkscape:pageopacity="0"
     inkscape:pageshadow="2"
     inkscape:window-width="1920"
     inkscape:window-height="1068"
     id="namedview44"
     showgrid="false"
     inkscape:zoom="0.80770671"
     inkscape:cx="372.04724"
     inkscape:cy="526.18109"
     inkscape:window-x="0"
     inkscape:window-y="0"
     inkscape:window-maximized="1"
     inkscape:current-layer="svg3003" />
  <defs
     id="defs3005" />
  <metadata
     id="metadata3008">
    <rdf:RDF>
      <cc:Work
         rdf:about="">
        <dc:format>image/svg+xml</dc:format>
        <dc:type
           rdf:resource="http://purl.org/dc/dcmitype/StillImage" />
        <dc:title />
      </cc:Work>
    </rdf:RDF>
  </metadata>
  <g
     id="layer1"
     transform="translate(99.045852,82.950901)">
    <path
       d="m 210.74442,372.47181 c 8.9907,19.66582 13.9613,27.47138 61.80173,51.52054"
       id="path3035"
       style="fill:none;stroke:#000000;stroke-width:0.99042624px;stroke-linecap:butt;stroke-linejoin:miter;stroke-opacity:1"
       inkscape:connector-curvature="0" />
    <path
       d="m 207.26207,370.31933 c 13.31075,-12.59349 30.66758,-31.00941 51.11239,-34.86924"
       id="path3045"
       style="fill:none;stroke:#000000;stroke-width:0.73745555px;stroke-linecap:butt;stroke-linejoin:miter;stroke-opacity:1"
       inkscape:connector-curvature="0" />
    <path
       d="m 211.26491,372.75501 c 13.03819,-10.04399 16.40273,-19.91878 31.15163,-24.37053"
       id="path3123"
       style="fill:none;stroke:#000000;stroke-width:0.99856836px;stroke-linecap:butt;stroke-linejoin:miter;stroke-opacity:1"
       inkscape:connector-curvature="0" />
    <path
       d="m 272.4709,423.96331 c 9.89115,-11.47916 26.74512,-24.79064 22.71065,-34.25425"
       id="path3123-1"
       style="fill:none;stroke:#000000;stroke-width:1.01011777px;stroke-linecap:butt;stroke-linejoin:miter;stroke-opacity:1"
       inkscape:connector-curvature="0" />
    <path
       d="m 242.235,348.20438 52.94918,41.58881"
       id="path3143"
       style="fill:none;stroke:#000000;stroke-width:1.00483274px;stroke-linecap:butt;stroke-linejoin:miter;stroke-opacity:1"
       inkscape:connector-curvature="0" />
    <path
       d="m 275.81381,428.31489 c 12.63181,-15.01999 29.10332,-36.98427 48.5053,-41.5878"
       id="path3045-0"
       style="fill:none;stroke:#000000;stroke-width:0.78456521px;stroke-linecap:butt;stroke-linejoin:miter;stroke-opacity:1"
       inkscape:connector-curvature="0" />
    <path
       d="m 324.10053,386.7348 c 28.28171,-5.64452 52.9063,0.96077 79.35945,1.44116"
       id="path3217-0"
       style="fill:none;stroke:#000000;stroke-width:0.99255764px;stroke-linecap:butt;stroke-linejoin:miter;stroke-opacity:1"
       inkscape:connector-curvature="0" />
    <g
       transform="matrix(1.1858083,0,0,1.107474,-81.136462,-33.374582)"
       id="g3299">
      <path
         d="m 351.20587,332.20765 49.95196,45.12911"
         id="path3275"
         style="fill:none;stroke:#000000;stroke-width:0.99893188px;stroke-linecap:butt;stroke-linejoin:miter;stroke-opacity:1"
         inkscape:connector-curvature="0" />
      <path
         d="m 400.81281,376.99174 10.33467,-5.16734"
         id="path3277"
         style="fill:none;stroke:#000000;stroke-width:1px;stroke-linecap:butt;stroke-linejoin:miter;stroke-opacity:1"
         inkscape:connector-curvature="0" />
      <path
         d="m 361.86883,328.66044 48.77864,43.26681"
         id="path3275-5"
         style="fill:none;stroke:#000000;stroke-width:0.96654809px;stroke-linecap:butt;stroke-linejoin:miter;stroke-opacity:1"
         inkscape:connector-curvature="0" />
      <path
         d="m 350.93872,332.55267 11.11909,-3.61713"
         id="path3297"
         style="fill:none;stroke:#000000;stroke-width:0.98157758px;stroke-linecap:butt;stroke-linejoin:miter;stroke-opacity:1"
         inkscape:connector-curvature="0" />
    </g>
    <path
       d="m 403.05199,388.01538 -7.06202,-4.82284"
       id="path3305"
       style="fill:none;stroke:#000000;stroke-width:1px;stroke-linecap:butt;stroke-linejoin:miter;stroke-opacity:1"
       inkscape:connector-curvature="0" />
    <path
       d="m 258.19441,335.48083 c 27.15721,-8.38256 79.11762,9.93276 86.63896,7.92324"
       id="path3311"
       style="fill:none;stroke:#000000;stroke-width:1px;stroke-linecap:butt;stroke-linejoin:miter;stroke-opacity:1"
       inkscape:connector-curvature="0" />
    <path
       d="m 347.24479,345.12652 0.17224,1.89468"
       id="path3313"
       style="fill:none;stroke:#000000;stroke-width:1px;stroke-linecap:butt;stroke-linejoin:miter;stroke-opacity:1"
       inkscape:connector-curvature="0" />
    <path
       d="m 386.86101,378.36969 c 0,0.63157 0,1.26313 0,1.89469 0,0.11483 0,0.22966 0,0.34449 0,0.0574 -0.0257,0.12089 0,0.17224 0.0363,0.0726 0.14657,0.0952 0.17224,0.17225 0.0263,0.0789 0,0.76508 0,0.86122 0,0.28707 0,0.57415 0,0.86122 -0.0574,0.0574 -0.14656,0.0952 -0.17224,0.17225 -0.0363,0.10893 0.0513,0.24178 0,0.34449 -0.0514,0.1027 -0.24178,-0.0514 -0.34449,0 -0.0726,0.0363 -0.0952,0.14656 -0.17224,0.17224 -7.8e-4,2.6e-4 -0.51657,-1.6e-4 -0.51674,0 -0.0406,0.0406 0,0.11483 0,0.17225"
       id="path3321"
       style="fill:none;stroke:#000000;stroke-width:1px;stroke-linecap:butt;stroke-linejoin:miter;stroke-opacity:1"
       inkscape:connector-curvature="0" />
    <path
       d="m 403.05199,388.18763 c 0,10.73657 2.71264,23.75813 -5.55509,26.91594"
       id="path3329"
       style="fill:none;stroke:#000000;stroke-width:1px;stroke-linecap:butt;stroke-linejoin:miter;stroke-opacity:1"
       inkscape:connector-curvature="0" />
    <path
       d="m 281.10292,426.94262 c 15.55942,-22.21953 38.3531,-40.47744 52.87905,-38.23826"
       id="path3335"
       style="fill:none;stroke:#000000;stroke-width:1px;stroke-linecap:butt;stroke-linejoin:miter;stroke-opacity:1"
       inkscape:connector-curvature="0" />
    <path
       d="m 333.46523,388.53211 c 2.06694,6.19522 -4.43042,13.79071 -7.87531,18.26349"
       id="path3337"
       style="fill:none;stroke:#000000;stroke-width:0.9314338px;stroke-linecap:butt;stroke-linejoin:miter;stroke-opacity:1"
       inkscape:connector-curvature="0" />
    <path
       d="m 281.62598,426.76406 44.30847,-19.76678"
       id="path3339"
       style="fill:none;stroke:#000000;stroke-width:1.01264882px;stroke-linecap:butt;stroke-linejoin:miter;stroke-opacity:1"
       inkscape:connector-curvature="0" />
    <path
       d="M 398.29019,414.87968 209.5154,477.94185"
       id="path3010"
       style="fill:none;stroke:#000000;stroke-width:0.81935942px;stroke-linecap:butt;stroke-linejoin:miter;stroke-opacity:1"
       inkscape:connector-curvature="0" />
    <path
       d="m 275.50101,428.39545 -66.93814,28.41104"
       id="path3014"
       style="fill:none;stroke:#000000;stroke-width:1px;stroke-linecap:butt;stroke-linejoin:miter;stroke-opacity:1"
       inkscape:connector-curvature="0" />
    <path
       d="m 208.89335,456.88866 c -15.35788,5.66771 -31.17382,-5.44871 -43.82235,-14.43477 -23.45183,-16.66121 -36.53957,-41.73947 -19.32875,-49.90272"
       id="path3018"
       style="fill:none;stroke:#000000;stroke-width:1.19996524px;stroke-linecap:butt;stroke-linejoin:miter;stroke-opacity:1"
       inkscape:connector-curvature="0" />
    <path
       d="m 207.27146,370.49719 -62.4182,22.38445"
       id="path3022"
       style="fill:none;stroke:#000000;stroke-width:1px;stroke-linecap:butt;stroke-linejoin:miter;stroke-opacity:1"
       inkscape:connector-curvature="0" />
    <path
       d="m 137.96574,406.65669 3.65899,27.76534"
       id="path3026"
       style="fill:none;stroke:#000000;stroke-width:1px;stroke-linecap:butt;stroke-linejoin:miter;stroke-opacity:1"
       inkscape:connector-curvature="0" />
    <path
       d="m 141.72956,433.45138 c -0.0657,10.25148 39.20274,47.02153 68.44969,44.04936"
       id="path3030"
       style="fill:none;stroke:#000000;stroke-width:0.78056639px;stroke-linecap:butt;stroke-linejoin:miter;stroke-opacity:1"
       inkscape:connector-curvature="0" />
    <path
       d="m 433.05316,445.9371 a 8.824645,21.415908 0 1 1 -17.64929,0 8.824645,21.415908 0 1 1 17.64929,0 z"
       transform="matrix(1.269852,0,0,0.83902373,-275.27335,85.771888)"
       id="path3032"
       style="fill:#ffffff;fill-opacity:1;stroke:#000000;stroke-opacity:1"
       inkscape:connector-curvature="0" />
    <path
       d="m 387.20806,480.37473 a 14.74361,20.339727 0 1 1 -29.48722,0 14.74361,20.339727 0 1 1 29.48722,0 z"
       transform="matrix(0.77513608,0,0,0.91329833,-21.15249,22.666992)"
       id="path3036"
       style="fill:#ffffff;fill-opacity:1;stroke:#000000;stroke-opacity:1"
       inkscape:connector-curvature="0" />
    <path
       d="m 433.05316,445.9371 a 8.824645,21.415908 0 1 1 -17.64929,0 8.824645,21.415908 0 1 1 17.64929,0 z"
       transform="matrix(1.0823455,0,0,0.75093277,-107.49035,94.918376)"
       id="path3110"
       style="fill:#ffffff;fill-opacity:1;stroke:#000000;stroke-opacity:1"
       inkscape:connector-curvature="0" />
    <path
       d="m 387.20806,480.37473 a 14.74361,20.339727 0 1 1 -29.48722,0 14.74361,20.339727 0 1 1 29.48722,0 z"
       transform="matrix(0.66067941,0,0,0.81740911,109.107,38.439003)"
       id="path3112"
       style="fill:#ffffff;fill-opacity:1;stroke:#000000;stroke-opacity:1"
       inkscape:connector-curvature="0" />
    <path
       d="m 201.02724,476.71962 c -14.76366,-2.27726 -32.60835,-12.31241 -46.99802,-26.42985 -7.15192,-7.01662 -10.82095,-12.12644 -11.73797,-16.34735 -0.28332,-1.30413 -2.50659,-17.63087 -2.49428,-18.31698 0.002,-0.12661 0.49223,0.68992 1.0888,1.81453 3.45107,6.50573 9.76153,14.08154 16.66832,20.01061 6.49169,5.57272 18.04493,13.38567 24.85531,16.80855 8.32192,4.18259 15.96927,5.65138 22.81493,4.38196 1.40226,-0.26003 3.76538,-1.02258 3.98185,-1.28491 0.11838,-0.14345 15.13052,-6.5865 33.36032,-14.31789 18.22979,-7.73138 33.27155,-14.15981 33.42612,-14.28539 0.15457,-0.12558 2.47476,-2.84343 5.15598,-6.03967 11.32065,-13.49517 17.85964,-20.31091 24.69817,-25.74344 5.29809,-4.2088 11.76625,-7.77067 16.68072,-9.1857 1.85953,-0.53542 6.81172,-1.3807 10.86938,-1.85528 5.71362,-0.66826 9.96307,-0.83464 18.07975,-0.70786 8.27201,0.12919 10.1613,0.25302 25.18252,1.65054 11.71195,1.08964 16.51488,1.47141 21.48471,1.70778 2.22785,0.10596 4.11338,0.25541 4.19009,0.3321 0.1797,0.17971 0.43865,6.86576 0.45883,11.84787 0.0316,7.78747 -1.19307,11.26176 -4.69255,13.31276 -0.81114,0.47539 -6.63327,2.5215 -17.14598,6.02574 -8.7548,2.91826 -15.99047,5.30593 -16.07923,5.30593 -0.0888,0 -0.16143,-0.18599 -0.16143,-0.41332 0,-0.62585 -1.24849,-4.05424 -1.97971,-5.43636 -1.46637,-2.77163 -3.91599,-4.90083 -6.14354,-5.33994 -0.68171,-0.13438 -1.89936,-0.44498 -2.70589,-0.69022 -5.41406,-1.64625 -10.22943,3.03737 -11.88208,11.55699 -0.20938,1.07942 -0.33508,2.928 -0.33689,4.95443 l -0.003,3.23256 -31.25248,10.41263 c -17.18887,5.72695 -31.35362,10.44957 -31.47723,10.49471 -0.1236,0.0452 -0.45064,-0.62284 -0.72675,-1.4844 -1.03537,-3.23075 -3.02967,-6.50873 -4.92565,-8.09613 -1.72642,-1.44544 -2.95092,-1.96316 -5.42271,-2.29274 -0.41432,-0.0552 -1.33445,-0.30658 -2.04473,-0.55853 -4.8909,-1.73491 -10.32488,2.20298 -12.71847,9.21681 -1.01491,2.97396 -1.37944,5.37908 -1.37944,9.10154 0,2.82371 -0.0419,3.19448 -0.37666,3.33166 -0.20716,0.0849 -9.47904,3.19465 -20.60418,6.91055 l -20.22752,6.7562 -3.7712,-0.0208 c -2.07416,-0.0115 -4.6429,-0.1553 -5.70832,-0.31964 z m 102.92925,-59.2249 c 12.478,-5.56708 22.11744,-9.98678 22.18067,-10.16986 0.0615,-0.17809 0.90798,-1.38921 1.88106,-2.69138 3.41196,-4.56587 5.30567,-7.97167 6.04366,-10.86938 0.43339,-1.70174 0.33584,-5.30721 -0.15196,-5.61614 -0.47482,-0.30072 -4.05375,-0.22477 -6.08287,0.12908 -7.32544,1.27745 -15.7767,5.90891 -25.08968,13.74967 -6.85742,5.77337 -14.95592,14.60846 -20.83338,22.72826 -1.22791,1.69638 -1.29762,1.85355 -0.97852,2.20616 0.18898,0.20881 0.48277,0.37966 0.65288,0.37966 0.17011,0 10.24027,-4.43073 22.37814,-9.84607 l 0,0 z"
       id="path3114"
       style="fill:#ff2a2a;fill-opacity:1;stroke:#000000;stroke-width:0.21523516;stroke-opacity:1"
       inkscape:connector-curvature="0" />
    <path
       d="m 195.43113,457.2736 c -7.7267,-1.36458 -15.45931,-5.22649 -27.65814,-13.81334 -6.02326,-4.23981 -11.13592,-8.50215 -14.85081,-12.38084 -12.13947,-12.67476 -16.915,-24.72073 -12.86383,-32.44823 0.86698,-1.65375 2.86626,-3.6383 4.80564,-4.77024 1.07754,-0.62891 10.01927,-3.92606 32.10402,-11.83793 16.83578,-6.03143 30.63773,-11.06718 30.67101,-11.19057 0.15598,-0.57826 14.70466,-14.14411 19.30155,-17.99765 10.08024,-8.45018 20.5794,-14.34767 28.97164,-16.27367 1.06541,-0.24451 3.00253,-0.69116 4.3047,-0.99256 7.06783,-1.63589 14.29419,-2.03105 23.99872,-1.31234 10.67085,0.79028 19.35706,2.24098 42.51302,7.10017 4.73741,0.99413 9.9192,2.01118 11.51508,2.26012 3.18994,0.4976 6.49941,0.61184 6.6271,0.22876 0.0447,-0.13403 0.44507,0.0528 0.92102,0.42975 0.59898,0.4744 0.84283,0.83246 0.84492,1.24067 0.006,1.07776 0.23461,1.54237 0.76052,1.54237 0.33626,0 0.52035,-0.14335 0.56679,-0.44137 0.0556,-0.35715 3.70355,2.62576 19.11709,15.6322 l 19.04831,16.07358 0.15288,1.85565 c 0.18366,2.22929 0.0967,2.60898 -0.59785,2.60898 -0.69173,0 -0.72337,0.75719 -0.0393,0.94051 1.77432,0.4755 2.21768,-0.10773 2.01194,-2.64654 l -0.12955,-1.59841 0.48473,0.43183 c 0.26661,0.2375 1.72653,1.47861 3.24428,2.75803 l 2.75953,2.3262 1.03963,-0.48694 1.03961,-0.48693 2.47479,1.6949 c 1.36113,0.9322 2.4424,1.72897 2.40282,1.77061 -0.22066,0.23219 -11.43148,-0.63686 -28.51093,-2.21012 -4.43922,-0.40892 -9.81472,-0.86922 -11.94555,-1.0229 -5.01614,-0.36177 -18.85401,-0.36345 -22.81493,-0.003 -6.08458,0.55405 -12.72641,1.53831 -13.99028,2.07324 -0.35514,0.15031 -1.12999,0.39882 -1.72189,0.55223 -2.92018,0.75689 -8.44392,3.45173 -12.16078,5.93282 -8.51433,5.68352 -15.85799,12.95875 -29.31255,29.03943 l -4.8623,5.81134 -33.8695,14.3622 c -18.62823,7.89921 -34.30148,14.51251 -34.82946,14.69621 -2.79723,0.97325 -7.78434,1.21195 -11.52368,0.55156 l 0,-10e-6 z m 78.56083,-34.10607 c 5.74471,-6.01202 12.05236,-12.72723 13.77009,-14.65982 6.38274,-7.18111 9.18348,-12.76744 8.51113,-16.9762 -0.12327,-0.77163 -0.28106,-1.55132 -0.35064,-1.73264 -0.20781,-0.54155 -53.08519,-41.96746 -53.52623,-41.93424 -1.36717,0.10298 -6.06041,2.11378 -8.65332,3.70746 -3.07234,1.88836 -4.89709,3.49521 -11.73403,10.33281 -6.04818,6.04877 -10.68853,10.27664 -11.62006,10.58715 -0.29238,0.0975 2.17802,5.508 4.25839,9.3265 7.76644,14.25519 18.99509,22.85948 52.1343,39.94947 3.28372,1.69342 5.43567,2.6829 5.70373,2.62259 0.23676,-0.0532 0.91475,-0.60364 1.50664,-1.22308 l 0,0 z"
       id="path3116"
       style="fill:#ff2a2a;fill-opacity:1;stroke:#000000;stroke-width:0.21523516;stroke-opacity:1"
       inkscape:connector-curvature="0" />
    <path
       d="m 365.68214,359.23146 c -15.62607,-13.18925 -28.39218,-24.05336 -28.36913,-24.14247 0.0464,-0.1795 10.08253,-3.29955 10.63931,-3.30758 0.36958,-0.005 56.31025,46.22398 56.38123,46.59338 0.0386,0.2008 -9.55348,4.82547 -10.02513,4.83346 -0.11838,0.002 -13.0002,-10.78755 -28.62628,-23.97679 z"
       id="path3118"
       style="fill:#280b0b;fill-opacity:1;stroke:#000000;stroke-width:0.21523516;stroke-opacity:1"
       inkscape:connector-curvature="0" />
    <path
       d="m 265.49017,479.08235 c -2.56856,-0.93112 -4.74204,-3.1328 -6.35212,-6.43456 -4.25944,-8.73473 -2.79052,-21.39443 3.11705,-26.86379 2.09994,-1.94418 4.19678,-2.67878 6.4636,-2.26445 1.71279,0.31307 3.05379,1.12892 4.69392,2.85573 6.78105,7.13941 6.64706,23.3545 -0.25075,30.34642 -1.69402,1.71712 -3.30008,2.52055 -5.25863,2.63059 -0.97666,0.0549 -1.7582,-0.0325 -2.41307,-0.26994 z"
       id="path3120"
       style="fill:#280b0b;fill-opacity:1;stroke:#000000;stroke-width:0.21523516;stroke-opacity:1"
       inkscape:connector-curvature="0" />
    <path
       d="m 257.82272,474.42348 c -6.15966,-6.49293 -6.65824,-19.97054 -1.03052,-27.85708 1.79203,-2.5113 4.52596,-4.05486 6.91179,-3.90233 l 1.03286,0.066 -1.28208,0.72646 c -6.29754,3.56833 -9.48827,15.05786 -6.97096,25.10176 0.62688,2.50121 2.36844,6.5097 2.99705,6.8982 0.25133,0.15533 0.25846,0.52741 0.0101,0.52741 -0.10333,0 -0.85403,-0.7022 -1.66823,-1.56045 l 0,0 z"
       id="path3122"
       style="fill:#280b0b;fill-opacity:1;stroke:#000000;stroke-width:0.21523516;stroke-opacity:1"
       inkscape:connector-curvature="0" />
    <path
       d="m 354.19865,447.10699 c -4.53878,-0.79901 -8.21052,-7.95402 -8.21052,-15.99959 0,-8.60566 4.15929,-16.0302 9.00126,-16.0677 2.8849,-0.0223 5.11069,1.69228 7.00106,5.39325 1.66681,3.2633 2.36308,6.40848 2.36308,10.67445 0,4.25883 -0.69714,7.41443 -2.35375,10.65414 -2.01666,3.94385 -4.8264,5.86912 -7.80113,5.34545 z"
       id="path3124"
       style="fill:#280b0b;fill-opacity:1;stroke:#000000;stroke-width:0.21523516;stroke-opacity:1"
       inkscape:connector-curvature="0" />
    <path
       d=""
       id="path3126"
       style="fill:#280b0b;fill-opacity:1;stroke:#000000;stroke-width:0.21523516;stroke-opacity:1"
       inkscape:connector-curvature="0" />
    <path
       d="m 347.10554,443.03885 c -1.38011,-1.41691 -2.887,-4.36136 -3.61031,-7.05453 -0.76859,-2.86175 -0.96088,-7.50241 -0.43046,-10.38865 0.71205,-3.87459 2.06637,-6.92099 3.96944,-8.92884 1.48308,-1.56474 2.91512,-2.29157 4.52075,-2.29449 l 1.15451,-0.002 -1.3387,0.89395 c -5.27559,3.5229 -7.74734,13.7264 -5.49694,22.69163 0.29476,1.17426 0.96628,3.00614 1.49228,4.07083 0.52599,1.06469 0.92019,1.97197 0.87598,2.01618 -0.0442,0.0442 -0.55565,-0.40759 -1.13655,-1.00397 l 0,0 z"
       id="path3171"
       style="fill:#280b0b;fill-opacity:1;stroke:#000000;stroke-width:0.21523516;stroke-opacity:1"
       inkscape:connector-curvature="0" />
  </g>
  <path
     style="fill:#ffffff;fill-opacity:1;stroke:#000000;stroke-width:1.23807311;stroke-opacity:1"
     d="m 357.56179,498.16633 c -24.80691,-13.61835 -35.79011,-22.64105 -42.48235,-34.89924 l -3.5932,-6.58167 10.07821,-9.65174 c 9.29462,-8.9013 16.0266,-13.70808 19.19843,-13.70808 1.71604,0 51.75628,39.45471 52.50073,41.39471 1.129,2.94214 -3.58863,10.62649 -12.57198,20.47795 -4.98303,5.46457 -9.44009,9.89715 -9.90458,9.85018 -0.46449,-0.047 -6.41586,-3.14393 -13.22526,-6.88211 z"
     id="path3021"
     inkscape:connector-curvature="0" />
  <path
     style="fill:#ffffff;fill-opacity:1;stroke:#000000;stroke-width:1.23807311;stroke-opacity:1"
     d="m 385.41843,505.09652 c 0,-0.6236 4.96721,-6.10103 11.03824,-12.17206 8.15973,-8.15973 13.36887,-12.20421 19.97552,-15.50938 14.79038,-7.39933 18.30007,-5.53063 11.05858,5.88802 -2.84604,4.48774 -5.27994,6.57744 -10.21411,8.76965 -3.56275,1.5829 -12.18834,5.4159 -19.16798,8.51779 -6.97964,3.10189 -12.69025,5.12958 -12.69025,4.50598 z"
     id="path3023"
     inkscape:connector-curvature="0" />
</svg>
