<?xml version="1.0" encoding="UTF-8" standalone="no"?>
<!-- Created with Inkscape (http://www.inkscape.org/) -->

<svg
   xmlns:dc="http://purl.org/dc/elements/1.1/"
   xmlns:cc="http://creativecommons.org/ns#"
   xmlns:rdf="http://www.w3.org/1999/02/22-rdf-syntax-ns#"
   xmlns:svg="http://www.w3.org/2000/svg"
   xmlns="http://www.w3.org/2000/svg"
   xmlns:sodipodi="http://sodipodi.sourceforge.net/DTD/sodipodi-0.dtd"
   xmlns:inkscape="http://www.inkscape.org/namespaces/inkscape"
   width="744.09448819"
   height="1052.3622047"
   id="svg3104"
   version="1.1"
   inkscape:version="0.48.4 r9939"
   sodipodi:docname="New document 6">
  <defs
     id="defs3106" />
  <sodipodi:namedview
     id="base"
     pagecolor="#ffffff"
     bordercolor="#666666"
     borderopacity="1.0"
     inkscape:pageopacity="0.0"
     inkscape:pageshadow="2"
     inkscape:zoom="1.4"
     inkscape:cx="335.65119"
     inkscape:cy="179.57755"
     inkscape:document-units="px"
     inkscape:current-layer="layer1"
     showgrid="false"
     inkscape:window-width="1366"
     inkscape:window-height="705"
     inkscape:window-x="-8"
     inkscape:window-y="-8"
     inkscape:window-maximized="1" />
  <metadata
     id="metadata3109">
    <rdf:RDF>
      <cc:Work
         rdf:about="">
        <dc:format>image/svg+xml</dc:format>
        <dc:type
           rdf:resource="http://purl.org/dc/dcmitype/StillImage" />
        <dc:title></dc:title>
      </cc:Work>
    </rdf:RDF>
  </metadata>
  <g
     inkscape:label="Layer 1"
     inkscape:groupmode="layer"
     id="layer1">
    <path
       style="fill:none;stroke:#000000;stroke-width:1.03306925px;stroke-linecap:butt;stroke-linejoin:miter;stroke-opacity:1"
       d="m 1.4450672,701.66444 601.3955428,0 0,350.68126 -602.10978956,0 z"
       id="path3114"
       inkscape:connector-curvature="0"
       sodipodi:nodetypes="ccccc" />
    <path
       style="fill:#f2f2f2;stroke:#000000;stroke-width:1px;stroke-linecap:butt;stroke-linejoin:miter;stroke-opacity:1"
       d="m 20,815.93361 37.724824,0 m 31.31473,0 31.314726,0 m 33.84011,0 37.88072,0 m 29.7995,0 32.32488,0 m 39.39595,0 34.85026,0 m 28.78935,0 31.81981,0 m 31.8198,0 29.7995,0 m 35.35534,0 25.75889,0 m 27.27412,0 22.36606,0"
       id="path3264"
       inkscape:connector-curvature="0"
       sodipodi:nodetypes="cccccccccccccccccc" />
    <path
       style="fill:#f2f2f2;stroke:#000000;stroke-width:1px;stroke-linecap:butt;stroke-linejoin:miter;stroke-opacity:1"
       d="m 19.999997,935.9336 37.72483,0 m 31.314727,0 31.314716,0 m 33.84012,0 37.88072,0 m 29.7995,0 32.32488,0 m 39.39595,0 34.85025,0 m 28.78935,0 31.81981,0 m 31.8198,0 29.7995,0 m 35.35534,0 25.75889,0 m 27.27412,0 22.36606,0"
       id="path3264-9"
       inkscape:connector-curvature="0"
       sodipodi:nodetypes="cccccccccccccccccc" />
    <path
       style="fill:#b3b3b3"
       d="M 1.746992,951.60606 C 2.0082776,896.50785 2.2221832,817.91856 2.222338,776.96321 l 2.812e-4,-74.46429 300.0000008,0 300,0 0,174.64286 0,174.64282 -300.47534,0 -300.4753525,0 0.4750645,-100.17854 z m 56.189913,-15.53571 c 0,-0.45856 -6.904762,-0.71429 -19.285714,-0.71429 -12.380953,0 -19.285715,0.25573 -19.285715,0.71429 0,0.45856 6.904762,0.71428 19.285715,0.71428 12.380952,0 19.285714,-0.25572 19.285714,-0.71428 z m 62.857145,0 c 0,-0.45503 -5.83334,-0.71429 -16.07143,-0.71429 -10.238094,0 -16.071429,0.25926 -16.071429,0.71429 0,0.45503 5.833335,0.71428 16.071429,0.71428 10.23809,0 16.07143,-0.25925 16.07143,-0.71428 z m 71.42857,0 c 0,-0.45856 -6.90476,-0.71429 -19.28571,-0.71429 -12.38095,0 -19.28572,0.25573 -19.28572,0.71429 0,0.45856 6.90477,0.71428 19.28572,0.71428 12.38095,0 19.28571,-0.25572 19.28571,-0.71428 z m 62.14286,0 c 0,-0.45549 -5.95238,-0.71429 -16.42857,-0.71429 -10.4762,0 -16.42858,0.2588 -16.42858,0.71429 0,0.45548 5.95238,0.71428 16.42858,0.71428 10.47619,0 16.42857,-0.2588 16.42857,-0.71428 z m 74.28571,0 c 0,-0.45714 -6.42857,-0.71429 -17.85714,-0.71429 -11.42857,0 -17.85714,0.25715 -17.85714,0.71429 0,0.45714 6.42857,0.71428 17.85714,0.71428 11.42857,0 17.85714,-0.25714 17.85714,-0.71428 z m 60.71429,0 c 0,-0.45503 -5.83334,-0.71429 -16.07143,-0.71429 -10.23809,0 -16.07143,0.25926 -16.07143,0.71429 0,0.45503 5.83334,0.71428 16.07143,0.71428 10.23809,0 16.07143,-0.25925 16.07143,-0.71428 z m 61.42857,0 c 0,-0.45352 -5.47619,-0.71429 -15,-0.71429 -9.52381,0 -15,0.26077 -15,0.71429 0,0.45351 5.47619,0.71428 15,0.71428 9.52381,0 15,-0.26077 15,-0.71428 z m 61.42857,0 c 0,-0.45045 -4.88095,-0.71429 -13.21429,-0.71429 -8.33333,0 -13.21428,0.26384 -13.21428,0.71429 0,0.45045 4.88095,0.71428 13.21428,0.71428 8.33334,0 13.21429,-0.26383 13.21429,-0.71428 z m 49.28571,0 c 0,-0.44643 -4.28571,-0.71429 -11.42857,-0.71429 -7.14285,0 -11.42857,0.26786 -11.42857,0.71429 0,0.44643 4.28572,0.71428 11.42857,0.71428 7.14286,0 11.42857,-0.26785 11.42857,-0.71428 z m -503.571425,-120 c 0,-0.45856 -6.904762,-0.71429 -19.285714,-0.71429 -12.380953,0 -19.285715,0.25573 -19.285715,0.71429 0,0.45856 6.904762,0.71428 19.285715,0.71428 12.380952,0 19.285714,-0.25572 19.285714,-0.71428 z m 62.857145,0 c 0,-0.45503 -5.83334,-0.71429 -16.07143,-0.71429 -10.238094,0 -16.071429,0.25926 -16.071429,0.71429 0,0.45503 5.833335,0.71428 16.071429,0.71428 10.23809,0 16.07143,-0.25925 16.07143,-0.71428 z m 71.42857,0 c 0,-0.45856 -6.90476,-0.71429 -19.28571,-0.71429 -12.38095,0 -19.28572,0.25573 -19.28572,0.71429 0,0.45856 6.90477,0.71428 19.28572,0.71428 12.38095,0 19.28571,-0.25572 19.28571,-0.71428 z m 62.14286,0 c 0,-0.45549 -5.95238,-0.71429 -16.42857,-0.71429 -10.4762,0 -16.42858,0.2588 -16.42858,0.71429 0,0.45548 5.95238,0.71428 16.42858,0.71428 10.47619,0 16.42857,-0.2588 16.42857,-0.71428 z m 74.28571,0 c 0,-0.45714 -6.42857,-0.71429 -17.85714,-0.71429 -11.42857,0 -17.85714,0.25715 -17.85714,0.71429 0,0.45714 6.42857,0.71428 17.85714,0.71428 11.42857,0 17.85714,-0.25714 17.85714,-0.71428 z m 60.71429,0 c 0,-0.45503 -5.83334,-0.71429 -16.07143,-0.71429 -10.23809,0 -16.07143,0.25926 -16.07143,0.71429 0,0.45503 5.83334,0.71428 16.07143,0.71428 10.23809,0 16.07143,-0.25925 16.07143,-0.71428 z m 61.42857,0 c 0,-0.45352 -5.47619,-0.71429 -15,-0.71429 -9.52381,0 -15,0.26077 -15,0.71429 0,0.45351 5.47619,0.71428 15,0.71428 9.52381,0 15,-0.26077 15,-0.71428 z m 61.42857,0 c 0,-0.45045 -4.88095,-0.71429 -13.21429,-0.71429 -8.33333,0 -13.21428,0.26384 -13.21428,0.71429 0,0.45045 4.88095,0.71428 13.21428,0.71428 8.33334,0 13.21429,-0.26383 13.21429,-0.71428 z m 49.28571,0 c 0,-0.44643 -4.28571,-0.71429 -11.42857,-0.71429 -7.14285,0 -11.42857,0.26786 -11.42857,0.71429 0,0.44643 4.28572,0.71428 11.42857,0.71428 7.14286,0 11.42857,-0.26785 11.42857,-0.71428 z"
       id="path3286"
       inkscape:connector-curvature="0" />
  </g>
</svg>
