<?xml version="1.0" encoding="UTF-8" standalone="no"?>
<!-- Created with Inkscape (http://www.inkscape.org/) -->

<svg
   xmlns:dc="http://purl.org/dc/elements/1.1/"
   xmlns:cc="http://creativecommons.org/ns#"
   xmlns:rdf="http://www.w3.org/1999/02/22-rdf-syntax-ns#"
   xmlns:svg="http://www.w3.org/2000/svg"
   xmlns="http://www.w3.org/2000/svg"
   xmlns:sodipodi="http://sodipodi.sourceforge.net/DTD/sodipodi-0.dtd"
   xmlns:inkscape="http://www.inkscape.org/namespaces/inkscape"
   width="744.09448819"
   height="1052.3622047"
   id="svg2987"
   version="1.1"
   inkscape:version="0.48.4 r9939"
   sodipodi:docname="New document 2">
  <defs
     id="defs2989" />
  <sodipodi:namedview
     id="base"
     pagecolor="#ffffff"
     bordercolor="#666666"
     borderopacity="1.0"
     inkscape:pageopacity="0.0"
     inkscape:pageshadow="2"
     inkscape:zoom="5.6"
     inkscape:cx="129.94089"
     inkscape:cy="546.18426"
     inkscape:document-units="px"
     inkscape:current-layer="layer1"
     showgrid="false"
     inkscape:window-width="1366"
     inkscape:window-height="705"
     inkscape:window-x="-8"
     inkscape:window-y="-8"
     inkscape:window-maximized="1" />
  <metadata
     id="metadata2992">
    <rdf:RDF>
      <cc:Work
         rdf:about="">
        <dc:format>image/svg+xml</dc:format>
        <dc:type
           rdf:resource="http://purl.org/dc/dcmitype/StillImage" />
        <dc:title></dc:title>
      </cc:Work>
    </rdf:RDF>
  </metadata>
  <g
     inkscape:label="Layer 1"
     inkscape:groupmode="layer"
     id="layer1">
    <path
       style="fill:#000000;stroke:#000000;stroke-width:1px;stroke-linecap:butt;stroke-linejoin:miter;stroke-opacity:1"
       d="m 70.357143,507.36218 c 2.155786,-0.18251 -0.07209,1.35648 0.357143,1.78572 0.08418,0.0842 0.272963,-0.0842 0.357143,0 0.08418,0.0842 -0.08418,0.27296 0,0.35714 0.08418,0.0842 0.272963,-0.0842 0.357143,0 0.08418,0.0842 -0.08418,0.27296 0,0.35714 0.08418,0.0842 0.250663,-0.0532 0.357142,0 0.150585,0.0753 0.206559,0.28185 0.357143,0.35714 0.10648,0.0532 0.272964,-0.0842 0.357143,0 0.08418,0.0842 -0.08418,0.27297 0,0.35715 0.08418,0.0842 0.250664,-0.0532 0.357143,0 0.150585,0.0753 0.206558,0.28185 0.357143,0.35714 0.212959,0.10648 0.545927,-0.16836 0.714286,0 0.08418,0.0842 -0.08418,0.27296 0,0.35714 0.08418,0.0842 0.272963,-0.0842 0.357142,0 0.08418,0.0842 -0.08418,0.27297 0,0.35715 0.168359,0.16835 0.501327,-0.10648 0.714286,0 0.150585,0.0753 0.206558,0.28185 0.357143,0.35714 0.212959,0.10648 0.545927,-0.16836 0.714286,0 0.08418,0.0842 -0.08418,0.27296 0,0.35714 0.178571,0.17857 0.892857,-0.17857 1.071428,0 0.08418,0.0842 -0.08418,0.27297 0,0.35714 0.08418,0.0842 0.250664,-0.0532 0.357143,0 0.150585,0.0753 0.206558,0.28186 0.357143,0.35715 0.190485,0.0952 0.523801,-0.0952 0.714286,0 0.150584,0.0753 0.206558,0.28185 0.357143,0.35714 0.193745,0.0969 1.330849,-0.0977 1.428571,0 0.08418,0.0842 -0.08418,0.27296 0,0.35714 0.08594,0.0859 1.342632,-0.0859 1.428571,0 0.08418,0.0842 -0.08418,0.27297 0,0.35715 0.178572,0.17857 0.892858,-0.17858 1.071429,0 0.08418,0.0842 -0.08418,0.27296 0,0.35714 0.01437,0.0144 1.297415,0 1.428571,0 0.186758,0 1.334664,-0.047 1.428572,0 0.150585,0.0753 0.206558,0.28185 0.357143,0.35714 0.10869,0.0543 0.910586,0 1.071428,0 0.833334,0 1.666667,0 2.5,0 0.186758,0 1.334664,0.047 1.428572,0 0.150584,-0.0753 0.206558,-0.28185 0.357143,-0.35714 0.212958,-0.10648 0.545927,0.16836 0.714285,0 0.08418,-0.0842 -0.08418,-0.27296 0,-0.35714 0.168359,-0.16836 0.501327,0.10648 0.714286,0 0.150585,-0.0753 0.206558,-0.28185 0.357143,-0.35715 0.212959,-0.10648 0.501327,0.10648 0.714286,0 0.150584,-0.0753 0.206558,-0.28185 0.357142,-0.35714 0.285715,-0.14286 0.785715,0.14286 1.071429,0 0.150585,-0.0753 0.206558,-0.28185 0.357143,-0.35714 0.106479,-0.0532 0.250663,0.0532 0.357143,0 0.150584,-0.0753 0.206558,-0.28185 0.357143,-0.35715 0.212958,-0.10647 0.545927,0.16836 0.714285,0 0.08418,-0.0842 -0.08418,-0.27296 0,-0.35714 0.178572,-0.17857 0.892857,0.17857 1.071429,0 0.08418,-0.0842 -0.08418,-0.27296 0,-0.35714 0.08418,-0.0842 0.250663,0.0532 0.357143,0 0.150584,-0.0753 0.206558,-0.28185 0.357143,-0.35714 0.106479,-0.0532 0.272963,0.0842 0.357142,0 0.08418,-0.0842 -0.08418,-0.27297 0,-0.35715 0.168359,-0.16836 0.545927,0.16836 0.714286,0 0.0842,-0.0842 -0.08418,-0.27296 0,-0.35714 0.16836,-0.16836 0.50133,0.10648 0.71429,0 0.15058,-0.0753 0.20655,-0.28185 0.35714,-0.35714 0.10648,-0.0532 0.27296,0.0842 0.35714,0 0.0842,-0.0842 -0.0842,-0.27297 0,-0.35715 0.0842,-0.0842 0.25067,0.0532 0.35714,0 0.0948,-0.0474 1.02402,-0.9766 1.07143,-1.07142 0.0532,-0.10648 -0.0532,-0.25067 0,-0.35715 0.74317,-1.48634 -0.0246,0.3818 0.71429,-0.35714 0.0842,-0.0842 0,-0.23809 0,-0.35714 0,-0.18676 0.0469,-1.33467 0,-1.42857 -0.0753,-0.15059 -0.28185,-0.20656 -0.35714,-0.35715 -0.0953,-0.19052 0.0953,-0.52376 0,-0.71428 -0.0753,-0.15059 -0.28185,-0.20656 -0.35715,-0.35715 -0.0532,-0.10647 0.0842,-0.27296 0,-0.35714 -0.0842,-0.0842 -0.27296,0.0842 -0.35714,0 -0.16836,-0.16836 0.10648,-0.50133 0,-0.71428 -0.0473,-0.0946 -0.66699,-0.6197 -0.71429,-0.71429 -0.0532,-0.10648 0.0532,-0.25066 0,-0.35714 -0.0753,-0.15059 -0.28185,-0.20656 -0.35714,-0.35715 -0.10648,-0.21295 0.16836,-0.54592 0,-0.71428 -0.0842,-0.0842 -0.27296,0.0842 -0.35714,0 -0.073,-0.073 0.0708,-0.92983 0,-1.07143 -0.81725,-1.6345 0.14802,1.51551 -0.71429,-1.07143 -0.0753,-0.22588 0.16836,-0.54593 0,-0.71428 -0.0842,-0.0842 -0.27296,0.0842 -0.35714,0 -0.168359,-0.16836 0.10648,-0.50133 0,-0.71429 -1.184494,-1.18449 0.16836,0.33672 -0.357143,-0.71429 -0.04762,-0.0952 -0.666667,-0.61904 -0.714285,-0.71428 -0.05324,-0.10648 0.08418,-0.27296 0,-0.35714 -0.08418,-0.0842 -0.272964,0.0842 -0.357143,0 -0.08418,-0.0842 0.05324,-0.25067 0,-0.35715 -0.214286,-0.42857 -0.857143,-0.64285 -1.071429,-1.07143 -0.05324,-0.10647 0.08418,-0.27296 0,-0.35714 -0.08418,-0.0842 -0.250663,0.0532 -0.357143,0 -0.301169,-0.15058 -0.413116,-0.5637 -0.714285,-0.71428 -0.10648,-0.0532 -0.272964,0.0842 -0.357143,0 -0.08418,-0.0842 0.08418,-0.27297 0,-0.35715 -0.08418,-0.0842 -0.250664,0.0532 -0.357143,0 -1.184494,-1.18449 0.336717,0.16836 -0.714286,-0.35714 -1.486343,-0.74317 0.381799,0.0247 -0.357143,-0.71429 -0.168358,-0.16835 -0.501327,0.10648 -0.714285,0 -1.184494,-1.18449 0.336717,0.16836 -0.714286,-0.35714 -0.150585,-0.0753 -0.206558,-0.28185 -0.357143,-0.35714 -0.106479,-0.0532 -0.250663,0.0532 -0.357143,0 -0.150585,-0.0753 -0.206558,-0.28185 -0.357143,-0.35714 -0.141604,-0.0708 -0.998415,0.073 -1.071428,0 -0.08418,-0.0842 0.08418,-0.27297 0,-0.35715 -0.168359,-0.16836 -0.545927,0.16836 -0.714286,0 -0.08418,-0.0842 0.08418,-0.27296 0,-0.35714 -0.01619,-0.0162 -1.617322,0 -1.785714,0 -0.833334,0 -1.666667,0 -2.5,0 -0.119048,0 -0.272964,-0.0842 -0.357143,0 -0.08418,0.0842 0.08418,0.27296 0,0.35714 -0.178572,0.17857 -0.892857,-0.17857 -1.071429,0 -0.08418,0.0842 0.08418,0.27297 0,0.35715 -0.07301,0.073 -0.929824,-0.0708 -1.071428,0 -0.150585,0.0753 -0.206559,0.28185 -0.357143,0.35714 -0.10648,0.0532 -0.250664,-0.0532 -0.357143,0 -0.150585,0.0753 -0.206558,0.28185 -0.357143,0.35714 -0.106479,0.0532 -0.238095,0 -0.357143,0 -0.119047,0.11905 -0.206558,0.28185 -0.357143,0.35714 -0.106479,0.0532 -0.272963,-0.0842 -0.357142,0 -0.08418,0.0842 0.08418,0.27297 0,0.35715 -0.08418,0.0842 -0.272964,-0.0842 -0.357143,0 -0.08418,0.0842 0.08418,0.27296 0,0.35714 -0.08418,0.0842 -0.250664,-0.0532 -0.357143,0 -0.150585,0.0753 -0.206558,0.28185 -0.357143,0.35714 -0.106479,0.0532 -0.272963,-0.0842 -0.357143,0 -0.119149,0.11915 0.119149,0.59514 0,0.71429 -0.08418,0.0842 -0.272963,-0.0842 -0.357143,0 -0.08418,0.0842 0.08418,0.27296 0,0.35714 -0.08418,0.0842 -0.272963,-0.0842 -0.357143,0 -0.08418,0.0842 0.08418,0.27297 0,0.35714 -0.738941,0.73895 0.02889,-1.1292 -0.714285,0.35715 -0.05324,0.10648 0.08418,0.27296 0,0.35714 -0.08418,0.0842 -0.272964,-0.0842 -0.357143,0 -0.08418,0.0842 0.05324,0.25066 0,0.35714 -0.214286,0.42857 -0.857143,0.64286 -1.071429,1.07143 -0.05324,0.10648 0.08418,0.27297 0,0.35714 -0.08418,0.0842 -0.272963,-0.0842 -0.357143,0 -0.08418,0.0842 0.08418,0.27297 0,0.35715 -0.08418,0.0842 -0.272963,-0.0842 -0.357142,0 -0.11915,0.11915 0.119149,0.59513 0,0.71428 -0.08418,0.0842 -0.250664,-0.0532 -0.357143,0 -1.486343,0.74317 0.381798,-0.0247 -0.357143,0.71429 -0.08418,0.0842 -0.272964,-0.0842 -0.357143,0 -0.08418,0.0842 0.05324,0.25066 0,0.35714 -0.07529,0.15059 -0.281851,0.20656 -0.357143,0.35714 -0.05324,0.10648 0.08418,0.27297 0,0.35715 -0.738941,0.73894 0.02889,-1.1292 -0.714286,0.35714 -0.05324,0.10648 0.05324,0.25066 0,0.35714 -0.07529,0.15059 -0.28185,0.20656 -0.357142,0.35715 -0.05324,0.10648 0.08418,0.27296 0,0.35714 -0.08418,0.0842 -0.272964,-0.0842 -0.357143,0 0,0.95238 0.119047,-0.11905 -0.357143,0.35714 -0.08418,0.0842 0.05324,0.25067 0,0.35714 -0.04711,0.0942 -0.667178,0.62008 -0.714286,0.71429 -0.05324,0.10648 0.08418,0.27296 0,0.35714 -0.08418,0.0842 -0.272963,-0.0842 -0.357143,0 -0.08418,0.0842 0.05324,0.25067 0,0.35715 -0.150584,0.30117 -0.563701,0.41311 -0.714285,0.71428 -0.05324,0.10648 0.05324,0.25067 0,0.35714 -0.07529,0.15059 -0.238096,0.2381 -0.357143,0.35715 -0.238096,0.59524 -0.476191,1.19047 -0.714286,1.78571 z"
       id="path2997"
       inkscape:connector-curvature="0" />
  </g>
</svg>
